<?xml version="1.0" encoding="utf-8"?>
<!-- Generator: Adobe Illustrator 19.0.0, SVG Export Plug-In . SVG Version: 6.00 Build 0)  -->
<svg version="1.1" id="Layer_1" xmlns="http://www.w3.org/2000/svg" xmlns:xlink="http://www.w3.org/1999/xlink" x="0px" y="0px"
	 viewBox="0 0 566.9 566.9" style="enable-background:new 0 0 566.9 566.9;" xml:space="preserve">
<style type="text/css">
	.st0{fill:#84D4F2;}
	.st1{fill:none;stroke:#F3AF70;stroke-miterlimit:10;stroke-dasharray:2;}
	.st2{fill:url(#SVGID_1_);}
	.st3{fill:url(#SVGID_2_);}
	.st4{fill:url(#SVGID_3_);}
	.st5{fill:url(#SVGID_4_);stroke:#9FDDF8;stroke-width:0.25;stroke-miterlimit:10;stroke-dasharray:1;}
	.st6{fill:url(#SVGID_5_);stroke:#3CADE3;stroke-width:0.25;stroke-linejoin:round;stroke-miterlimit:10;stroke-dasharray:1;}
	.st7{fill:#004779;}
	.st8{fill:#3099C4;}
	.st9{fill:#0086B0;}
	.st10{fill:#3DADDD;}
	.st11{fill:#FFFFFF;}
	.st12{fill:#B9E5FB;}
	.st13{fill:url(#SVGID_6_);stroke:#3CADE3;stroke-width:0.5;stroke-linejoin:round;stroke-miterlimit:10;stroke-dasharray:2;}
	.st14{fill:#56AAD0;}
	.st15{fill:#F1F2F2;}
	.st16{fill:url(#SVGID_7_);stroke:#3CADE3;stroke-width:0.5;stroke-linejoin:round;stroke-miterlimit:10;stroke-dasharray:2;}
	.st17{fill:url(#SVGID_8_);stroke:#3CADE3;stroke-width:0.5;stroke-linejoin:round;stroke-miterlimit:10;stroke-dasharray:2;}
	.st18{fill:url(#SVGID_9_);stroke:#3CADE3;stroke-width:0.5;stroke-linejoin:round;stroke-miterlimit:10;stroke-dasharray:2;}
	.st19{fill:url(#SVGID_10_);}
	.st20{fill:none;stroke:#3CADE3;stroke-width:0.5;stroke-linejoin:round;stroke-dasharray:1.983,1.983;}
	.st21{fill:url(#SVGID_11_);stroke:#3CADE3;stroke-width:0.5;stroke-linejoin:round;stroke-miterlimit:10;stroke-dasharray:2;}
	.st22{fill:#AAE0F3;}
	.st23{fill:url(#SVGID_12_);stroke:#3CADE3;stroke-width:0.5;stroke-linejoin:round;stroke-miterlimit:10;stroke-dasharray:2;}
	.st24{fill:url(#SVGID_13_);stroke:#3CADE3;stroke-width:0.5;stroke-linejoin:round;stroke-miterlimit:10;stroke-dasharray:2;}
	.st25{fill:url(#SVGID_14_);stroke:#3CADE3;stroke-width:0.5;stroke-linejoin:round;stroke-miterlimit:10;stroke-dasharray:2;}
	.st26{fill:url(#SVGID_15_);stroke:#3CADE3;stroke-width:0.5;stroke-linejoin:round;stroke-miterlimit:10;stroke-dasharray:2;}
	.st27{fill:#EAAA68;}
	.st28{fill:#FDCA97;}
	.st29{fill:#C9833E;}
	.st30{fill:#F3AF70;}
	.st31{fill:#B271B0;}
	.st32{fill:#944C9D;}
	.st33{fill:#9D5EA6;}
	.st34{fill:#B770AF;}
	.st35{fill:none;stroke:#F065A5;stroke-miterlimit:10;stroke-dasharray:2;}
	.st36{fill:#C34370;}
	.st37{fill:#9B2259;}
	.st38{fill:#F27691;}
	.st39{fill:#EC5C83;}
	.st40{fill:#51C6E0;}
	.st41{fill:#A0DCF1;}
	.st42{fill:#C35EA4;}
	.st43{fill:#CE82B7;}
	.st44{fill:#DE9FC7;}
	.st45{fill:#D59C39;}
	.st46{fill:#F1C266;}
	.st47{fill:#F7CE8D;}
	.st48{fill:#5F9941;}
	.st49{fill:#77B64D;}
	.st50{fill:#8FC968;}
	.st51{fill:#96D9EE;}
	.st52{fill:#59A446;}
	.st53{fill:#3A8940;}
	.st54{fill:#B48429;}
	.st55{fill:#6ABD48;}
	.st56{fill:#A27025;}
	.st57{fill:none;stroke:#B271B0;stroke-miterlimit:10;stroke-dasharray:2;}
	.st58{fill:#CAB444;}
	.st59{fill:#E9D871;}
	.st60{fill:#EFE4A3;}
	.st61{fill:#8F5CA5;}
	.st62{fill:#AC81BA;}
	.st63{fill:#BA8CBF;}
</style>
<path class="st0" d="M346.7,467.4c0,0,6.8,1.5,8.9-3.9c2.2-5.4-3.9-13.3-13.2-10.9c-9.3,2.4-9.9,17.3-9.9,17.3s-1.1-8.9-10.7-10.2
	c-9.6-1.2-13.8,10.7-13.8,10.7s-3.2-5.5-9.7-5.4c-6.5,0-8.2,6.4-5.7,8.1c2.5,1.7,5.9-0.7,4.9-2.4c-1-1.7-3.4-0.4-3.4-0.4
	s3.2-3.2,5.6-1.4c2.4,1.8-0.8,8.6-5.4,7.6c-4.6-1-8.1-8-16.5-6.1c-8.4,1.9-8.4,9.2-21.8,5.4c0,0,10.8,4.3,19.7,2.1
	c8.9-2.2,9.1,7.8,20.3,8.1c11.2,0.3,19.7-8.2,24.9-7.5c5.2,0.8,7.9,4.7,6.1,7.3c-1.9,2.7-6,0.8-4.8-2.5c0,0,1.3-0.7,2.3,0.4
	c0,0-0.3-3-3.3-2.5c-3,0.5-5.3,3-4.8,7.6c0.6,4.6,11.5,11.5,20.7-2.7c0,0,1.6,4.1,6.3,4.8c4.7,0.7,7.3-4.7,7.3-4.7s7.7,4,12.2,0.3
	c4.5-3.7,7.5,0.2,14.7-0.3c7.2-0.5,8.7-4.6,8.7-4.6s-4.5,3-11.6,0.3c-7.1-2.7-4.8-8.2-11.7-11.6c-9.3-4.4-11.9,6.1-23.1-0.9
	c-3.9-2.5-0.9-13.9,4.4-13.5c5.3,0.4,6.6,3.9,6.6,3.9s-4-2.5-6.8-0.5C341.3,461.4,340.4,466.6,346.7,467.4z"/>
<path class="st0" d="M152.3,298.3c0,0-6.9,1.8-9.3-3.7c-2.4-5.5,3.5-13.8,13.1-11.7c9.7,2.1,10.8,17.4,10.8,17.4s0.8-9.2,10.6-10.8
	c9.8-1.6,14.5,10.4,14.5,10.4s3-5.7,9.7-5.9c6.7-0.2,8.7,6.2,6.1,8.1c-2.5,1.9-6.1-0.5-5.1-2.3c1-1.8,3.5-0.5,3.5-0.5
	s-3.4-3.2-5.8-1.2c-2.4,2,1.1,8.8,5.8,7.6c4.7-1.2,8-8.5,16.7-6.8c8.7,1.7,9,9.1,22.5,4.7c0,0-10.9,4.8-20.1,2.9
	c-9.3-1.9-9,8.3-20.5,9c-11.5,0.7-20.5-7.7-25.8-6.7c-5.3,1-8,5.1-6,7.7c2,2.7,6.2,0.6,4.8-2.8c0,0-1.4-0.6-2.3,0.5
	c0,0,0.2-3.1,3.2-2.7c3.1,0.4,5.6,2.9,5.2,7.6c-0.4,4.8-11.4,12.3-21.3-2c0,0-1.5,4.2-6.2,5.1c-4.8,0.9-7.7-4.5-7.7-4.5
	s-7.8,4.4-12.5,0.7c-4.7-3.7-7.7,0.5-15.1,0.2c-7.4-0.2-9.1-4.4-9.1-4.4s4.8,2.9,11.9-0.1c7.1-3,4.6-8.6,11.6-12.3
	c9.3-4.9,12.4,5.8,23.7-1.8c3.9-2.7,0.4-14.3-5.1-13.7c-5.4,0.6-6.6,4.3-6.6,4.3s4-2.7,7-0.8C157.6,292,158.8,297.4,152.3,298.3z"/>
<path class="st0" d="M194,126.1c0,0-6.8,1.3-8.8-4.2c-2-5.5,4.2-13.2,13.5-10.5c9.3,2.6,9.5,17.6,9.5,17.6s1.4-8.9,11-9.9
	c9.6-1,13.5,11,13.5,11s3.3-5.4,9.8-5.2c6.5,0.2,8.1,6.6,5.5,8.3c-2.6,1.6-5.9-0.9-4.8-2.6c1.1-1.7,3.4-0.3,3.4-0.3
	s-3.1-3.3-5.5-1.5c-2.5,1.8,0.5,8.6,5.2,7.8c4.7-0.9,8.3-7.8,16.6-5.6c8.4,2.2,8.2,9.4,21.6,6c0,0-10.9,4-19.7,1.6
	c-8.9-2.4-9.3,7.5-20.5,7.5c-11.2,0-19.5-8.7-24.7-8.1c-5.2,0.6-8.1,4.4-6.3,7.2c1.8,2.7,6,1,4.8-2.4c0,0-1.3-0.7-2.3,0.4
	c0,0,0.4-3,3.3-2.4c2.9,0.6,5.2,3.1,4.6,7.8c-0.7,4.6-11.8,11.2-20.6-3.2c0,0-1.7,4-6.4,4.6c-4.7,0.6-7.2-4.9-7.2-4.9
	s-7.8,3.8-12.2-0.1c-4.4-3.9-7.5,0-14.6-0.7c-7.1-0.7-8.6-4.8-8.6-4.8s4.5,3.1,11.6,0.6c7.1-2.5,5-8.1,12.1-11.2
	c9.4-4.2,11.7,6.4,23.1-0.3c4-2.4,1.3-13.9-4.1-13.7c-5.3,0.2-6.7,3.7-6.7,3.7s4.1-2.3,6.9-0.3C199.6,120.2,200.3,125.5,194,126.1z"
	/>
<path class="st0" d="M410.3,335.7c0,0-7.4,1.2-9.4-4.9c-2-6,5.1-14.1,15-10.9c9.9,3.2,9.6,19.4,9.6,19.4s1.8-9.6,12.3-10.3
	c10.5-0.7,14.2,12.5,14.2,12.5s3.8-5.7,10.8-5.2c7,0.5,8.5,7.5,5.6,9.2c-2.9,1.7-6.3-1.2-5.1-3c1.2-1.8,3.7-0.2,3.7-0.2
	s-3.2-3.7-5.9-1.9c-2.7,1.8,0.2,9.4,5.3,8.6c5.1-0.7,9.3-8.1,18.2-5.4c9,2.7,8.5,10.5,23.2,7.3c0,0-11.9,3.9-21.5,1
	c-9.5-3-10.4,7.8-22.5,7.4c-12.1-0.4-20.8-10.2-26.4-9.8c-5.6,0.5-8.9,4.5-7.1,7.5c1.8,3,6.5,1.3,5.3-2.4c0,0-1.4-0.8-2.5,0.3
	c0,0,0.5-3.2,3.7-2.5c3.2,0.7,5.5,3.6,4.6,8.6c-0.9,5-13.2,11.7-22.2-4.3c0,0-2,4.3-7.1,4.8c-5.1,0.5-7.6-5.6-7.6-5.6
	s-8.6,3.8-13.2-0.5c-4.6-4.4-8.1-0.3-15.8-1.3c-7.7-1-9.1-5.5-9.1-5.5s4.7,3.5,12.5,1.1c7.8-2.4,5.7-8.6,13.5-11.7
	c10.3-4.2,12.5,7.4,25.1,0.6c4.4-2.4,1.9-15-3.9-15c-5.8,0.1-7.4,3.8-7.4,3.8s4.5-2.4,7.4-0.1C416.6,329.6,417.2,335.4,410.3,335.7z
	"/>
<path class="st1" d="M185.2,351.5c0,0-196.4-135,70.8-262"/>
<radialGradient id="SVGID_1_" cx="297.6767" cy="190.6339" r="110.8828" gradientTransform="matrix(4.489659e-11 1 -1.2392 5.563676e-11 533.9141 -107.0428)" gradientUnits="userSpaceOnUse">
	<stop  offset="7.377850e-02" style="stop-color:#FFFFFF"/>
	<stop  offset="0.2867" style="stop-color:#B0D0E4"/>
	<stop  offset="0.4842" style="stop-color:#7AB4D3"/>
	<stop  offset="0.6584" style="stop-color:#53A3C7"/>
	<stop  offset="0.8026" style="stop-color:#3699C0"/>
	<stop  offset="0.8991" style="stop-color:#2995BD"/>
</radialGradient>
<ellipse class="st2" cx="296" cy="301.4" rx="135.3" ry="135.9"/>
<radialGradient id="SVGID_2_" cx="292.636" cy="258.5273" r="169.1815" gradientTransform="matrix(4.489659e-11 0.9975 -1.0169 4.554076e-11 555.5298 -32.8651)" gradientUnits="userSpaceOnUse">
	<stop  offset="0.4629" style="stop-color:#1C75BC;stop-opacity:0"/>
	<stop  offset="0.9785" style="stop-color:#007195"/>
</radialGradient>
<ellipse class="st3" cx="296.3" cy="301.1" rx="135.3" ry="135.5"/>
<radialGradient id="SVGID_3_" cx="292.636" cy="258.5273" r="169.1815" gradientTransform="matrix(4.489659e-11 0.9975 -1.0169 4.554076e-11 555.5298 -32.8651)" gradientUnits="userSpaceOnUse">
	<stop  offset="0.4629" style="stop-color:#1C75BC;stop-opacity:0"/>
	<stop  offset="0.9785" style="stop-color:#007195"/>
</radialGradient>
<ellipse class="st4" cx="296.3" cy="301.1" rx="135.3" ry="135.5"/>
<radialGradient id="SVGID_4_" cx="292.636" cy="333.5278" r="129.6175" gradientTransform="matrix(4.489659e-11 1 -1.0169 4.565490e-11 631.7971 40.8919)" gradientUnits="userSpaceOnUse">
	<stop  offset="0.1995" style="stop-color:#2B9DC6"/>
	<stop  offset="0.9839" style="stop-color:#005E83"/>
</radialGradient>
<path class="st5" d="M429.8,279.3c-6.4,68.9-66.3,120.6-143.1,120.6c-77,0-114.7-47.1-125.2-111.5c-0.4,4.2-0.6,8.5-0.6,12.8
	c0,74.8,60.6,135.5,135.3,135.5c74.7,0,135.3-60.7,135.3-135.5C431.6,293.7,431,286.4,429.8,279.3z"/>
<linearGradient id="SVGID_5_" gradientUnits="userSpaceOnUse" x1="200.0718" y1="239.7189" x2="431.6621" y2="239.7189">
	<stop  offset="0" style="stop-color:#F1F2F2"/>
	<stop  offset="0.1296" style="stop-color:#F1F2F2;stop-opacity:0.9223"/>
	<stop  offset="1" style="stop-color:#F1F2F2;stop-opacity:0.4"/>
</linearGradient>
<path class="st6" d="M296.3,165.6c-0.5,0-1,0-1.4,0c-4.8,0.3-9.6,0.6-14.4,0.9c-31.3,3.7-59.4,18.1-80.4,39.5
	c11.8-2.5,59.4-11.4,67.7,3.8c9.5,17.3,15.5,30.4,33.9,14.1c18.5-16.3,36-12.4,38.3,0c2.3,12.4,7.6,30.5,29.5,37.4
	c21.7,6.8,54.9,8.9,61.6,52.6c0.4-4.1,0.6-8.2,0.6-12.3C431.7,226.4,371.1,165.6,296.3,165.6z"/>
<path class="st7" d="M415.4,242.8l-0.4,0.1c-16.4-31.3-44.6-55.3-78.7-66.2c-2.4-0.2-4.4-0.4-5.5-0.4c0,0-1.9,0.9-6.1,1.5
	c-1.5,0.2-2.7-0.9-3.7-0.6l-0.8-1.6l-1.1,4c-0.1,0.1-0.1,0.3-0.1,0.5l0,0l0,0c0,0.4,0.3,0.8,0.8,1.3c2.4,2.2,11.8,1.9,14.7,6.7
	c2.8,4.8,9.3,3.1,10.6,6.4c1.4,3.3,12.3,13,15.9,11.5c3.6-1.5,4.5-2.4,4.8,0.2c0.3,2.5,1.8,3.4,4,4.8c2.2,1.3,6.4,6.1,7.5,11.7
	c1,5.5-3,11.4-1,11.8c1.9,0.4,5.7-1,7,1.5c1.4,2.5,0.8,4.5,2.2,6.3c0.7,0.8,0,1.7-1,2.5l-2.8-0.6c0,0-1.2,3.5-1.2,4.4c0,0,0,0,0,0.1
	c0,0,0,0,0,0c0,0,0,0,0,0c0.1,2.2,3.7,6.8,6.2,11c2.8,4.8,2.8,8.4,4.6,8.4c1.1,0,3.6-1.2,5.1-4.2c0,0,0,0,0-0.1
	c1-1.6,1.9-5.7,1.9-5.7l-0.9-0.5c-0.1-0.8-0.2-1.6-0.4-2.5c-2.1-9.6-3.3-13-1.9-14.8c1.3-1.8,3.3-0.7,5.4,0.9c2.1,1.6,6.7,9,8.9,9
	c2.3,0,7.2-3.3,7.2-3.3l1.2-0.7v-3.5H415.4z"/>
<path class="st8" d="M415.4,242.3l-0.4,0.1c-16.4-31.3-44.6-55.3-78.7-66.2c-2.4-0.2-4.4-0.4-5.5-0.4c0,0-1.9,0.9-6.1,1.5
	c-1.5,0.2-2.7-0.9-3.7-0.6l-0.8-1.6l-1.1,4c-0.1,0.1-0.1,0.3-0.1,0.5l0,0l0,0c0,0.4,0.3,0.8,0.8,1.3c2.4,2.2,11.8,1.9,14.7,6.7
	c2.8,4.8,9.3,3.1,10.6,6.4c1.4,3.3,12.3,13,15.9,11.5c3.6-1.5,4.5-2.4,4.8,0.2c0.3,2.5,1.8,3.4,4,4.8c2.2,1.3,6.4,6.1,7.5,11.7
	c1,5.5-3,11.4-1,11.8c1.9,0.4,5.7-1,7,1.5c1.4,2.5,0.8,4.5,2.2,6.3c0.7,0.8,0,1.6-1,2.5l-2.8-0.6c0,0-1.2,3.5-1.2,4.4c0,0,0,0,0,0.1
	c0,0,0,0,0,0c0,0,0,0,0,0c0.1,2.2,3.7,6.8,6.2,11c2.8,4.8,2.8,8.4,4.6,8.4c1.1,0,3.6-1.2,5.1-4.2c0,0,0,0,0-0.1
	c1-1.6,1.9-5.7,1.9-5.7l-0.9-0.5c-0.1-0.8-0.2-1.6-0.4-2.5c-2.1-9.6-3.3-13-1.9-14.8c1.3-1.8,3.3-0.7,5.4,0.9c2.1,1.6,6.7,9,8.9,9
	c2.3,0,7.2-3.3,7.2-3.3l1.2-0.7l0.6-3.3L415.4,242.3z"/>
<path class="st7" d="M371.2,228.3c0.9-2,1-5.1,1-5.1l-1.3,0.2c-0.7-2.3-2.2-4.9-4.4-7c-5.2-5.2-6.6-6-10.8-8.1c-2-1-3.8-1-5.1-0.8
	l0.2-0.6l0.5-1.7l-0.1,0l-2.2-0.2c0,0-0.6,2.5-0.7,3.4c-0.8,6.4,4,4.8,6,5.8c1.9,1,0.7,6.3,0.9,8.1c0.2,1.8,6.7,3.7,8.8,3.6
	c2.1-0.1,1.2,5.2,5.1,4.3c0.3-0.1,0.6-0.2,0.8-0.3l0,0c0.1-0.1,0.2-0.2,0.4-0.3C370.7,229.2,371,228.8,371.2,228.3z"/>
<path class="st8" d="M371.2,227.9c0.9-2,1-5.1,1-5.1l-1.3,0.2c-0.7-2.3-2.2-4.9-4.4-7c-5.2-5.2-6.6-6-10.8-8.1c-2-1-3.8-1-5.1-0.8
	l0.2-0.6l0.5-1.7l-0.1,0l-2.2-0.2c0,0-0.6,2.5-0.7,3.4c-0.8,6.4,4,4.8,6,5.8c1.9,1,0.7,6.3,0.9,8.1c0.2,1.8,6.7,3.7,8.8,3.6
	c2.1-0.1,1.2,5.2,5.1,4.3c0.3-0.1,0.6-0.2,0.8-0.3l0,0c0.1-0.1,0.2-0.2,0.4-0.3C370.7,228.8,371,228.3,371.2,227.9z"/>
<path class="st9" d="M352.6,207.9l-2.8,0.9c0,0,2.9,1.7,3.4,2.3c0.5,0.6-0.7,2.2-2.9,1.5c1.4,0.6,3.1,0.4,4.1,1c0.6,0.3,0.9,1,1,1.9
	c0,0,0,0,0,0c0,0,0,0,0,0c0.2,1.4,0,3.2-0.1,4.5c0,0,0.2-1,0.7-2.2c0.6-1.2,1.6-4.3,1.6-4.4c0-0.1-2.3-4.7-2.3-4.7L352.6,207.9z"/>
<path class="st9" d="M364.7,221.6l-1.8-0.2l-1.8,0.3c0,0,2.7,1.1,2.4,2.1c-0.3,1-1.7,1.1-2.6,1.1c1.3,0.3,2.4,0.5,3.1,0.4
	c0.7-0.1,1.1,0.6,1.4,1.4c0-0.5,0-1.2,0.5-1.3c0.8,0,1.1,0.6,1.5,0.8c0.4,0.2,0.3-2.1,0.2-2.3C367.7,223.8,364.7,221.6,364.7,221.6z
	"/>
<path class="st9" d="M369.7,222.9l-0.3,1.2c0,0,1.4,2.7,1.3,4c0,0.5-0.4,1-0.8,1.4c0,0,0,0,0.1,0l0,0c0.1-0.1,0.2-0.2,0.4-0.3
	c0.4-0.3,0.6-0.7,0.8-1.2c0.6-1.3,0.8-3.1,0.9-4.2L369.7,222.9z"/>
<path class="st9" d="M365.8,195.7l-8.1,0.4c0,0,2.3,1.6,2.6,5c0.2,2.1-0.7,3.6-1.4,4.5c0.8,0.2,1.4,0.2,2,0c3.6-1.5,4.5-2.4,4.8,0.2
	c0.1,0.7,0.2,1.2,0.5,1.7c0.2-1.1,0.7-4,2.1-4.3c1.7-0.3,1-5.6,1-5.6L365.8,195.7z"/>
<path class="st10" d="M367.7,225.9c-0.2,0.8-0.8,2.8-0.6,3.5c0.4,0.3,1,0.4,1.7,0.3c0.5-0.4,0.8-1.4,0.5-3.4
	C368.6,226.4,368.1,226.3,367.7,225.9z"/>
<path class="st10" d="M349.6,208.2c-0.5-0.4-0.9-0.9-1-1.6c-0.1,0.5-0.2,0.9-0.2,1.2c-0.3,2.5,0.3,3.8,1.2,4.5
	c-0.2-0.5-0.3-1-0.3-1.7C349.2,209.8,349.4,208.9,349.6,208.2z"/>
<path class="st10" d="M358,220.2c-1.1-0.5-1.9-1.1-2-1.7c-0.4,0.5-0.6,1.2-0.7,1.8c0,0.6-0.1,1.1,0,1.5c0.1,0.7,1.2,1.5,2.8,2.2
	C357.2,222.6,357.5,221.2,358,220.2z"/>
<path class="st11" d="M348.8,204.7c0.5-1,3.1-2.1,7.3,0c4.2,2.1,5.5,2.8,10.8,8.1c5.2,5.2,6.6,12.9,2.7,13.8c-3.9,0.9-3-4.5-5.1-4.3
	c-2.1,0.2-8.7-1.8-8.8-3.6c-0.1-1.8,1-7-0.9-8.1C352.8,209.5,346.5,209.5,348.8,204.7z"/>
<path class="st12" d="M349.1,204.4c0.5-1,3.1-2.1,7.3,0c3.1,1.5,4.6,2.4,7.3,4.8c1,0.9,2.1,1.9,3.5,3.3c5.2,5.2,6.6,12.9,2.7,13.8
	c-3.9,0.9-3-4.5-5.1-4.3c-2.1,0.2-8.7-1.8-8.8-3.6c-0.1-1.8,1-7-0.9-8.1C353.1,209.2,346.7,209.2,349.1,204.4z"/>
<linearGradient id="SVGID_6_" gradientUnits="userSpaceOnUse" x1="357.3013" y1="209.021" x2="373.5809" y2="232.7811">
	<stop  offset="0" style="stop-color:#F1F2F2"/>
	<stop  offset="0.1296" style="stop-color:#F1F2F2;stop-opacity:0.8704"/>
	<stop  offset="1" style="stop-color:#F1F2F2;stop-opacity:0"/>
</linearGradient>
<path class="st13" d="M349.1,204.4c0.5-1,3.1-2.1,7.3,0c3.1,1.5,4.6,2.4,7.3,4.8c1,0.9,2.1,1.9,3.5,3.3c5.2,5.2,6.6,12.9,2.7,13.8
	c-3.9,0.9-3-4.5-5.1-4.3c-2.1,0.2-8.7-1.8-8.8-3.6c-0.1-1.8,1-7-0.9-8.1C353.1,209.2,346.7,209.2,349.1,204.4z"/>
<path class="st9" d="M333.6,176c-1.2-0.1-2.1-0.1-2.8-0.1c0,0-1.8,0.8-5.5,1.4c1.1,1.1,3.7,4,3.1,5c-0.7,1.2-4.7,0.3-5.4,0.1
	c3.8,1,9.2,1.8,11.3,5.3c0.1,0.2,0.2,0.4,0.4,0.5c-0.2-0.5-1.9-4.5,2.9-2.2c5.2,2.5,2.2-5.3,2.2-5.3L333.6,176z"/>
<path class="st9" d="M379.8,218.9l-1.8-7.8l-1.9,1.4c0,0,1.1,3.3,1,4.6c-0.2,1.2-3.5-2.7-3.5-2.7l0,0c1.6,2.1,3.1,4.9,3.6,7.9
	c0.4,1.9,0.1,3.9-0.3,5.6c0,0,0.1,0,0.1,0c1-0.1,3.6-3.9,3.6-3.9L379.8,218.9z"/>
<path class="st9" d="M389.2,240.1c0-2.3-2.8-9.9-2.8-9.9l-3.6-4.3l-3.2,4.4c0,0,2.9,1.1,2.5,2.3c-0.4,1.2-2.3,1.5-2.3,1.5
	c1.4,0,2.7,0.2,3.4,1.5c1.3,2.4,0.8,4.3,2.1,6.1c1,0.7,2,1.1,2,1.1S389.2,242.4,389.2,240.1z"/>
<path class="st9" d="M400.3,238.7c1.3-0.5,4.8,1.8,4.8,1.8s-1.4-8.1-1.4-8.3c-0.1-0.2-4-2.6-4.1-2.5c-0.2,0.1-7.3,2.7-7.6,2.9
	c-0.3,0.3-1.5,7.1-1.5,7.9c0,0.3,2,1.2,4.1,2c-0.1-1.2,0.1-2,0.5-2.6c1.3-1.8,3.3-0.7,5.4,0.9c0.1,0.1,0.3,0.3,0.5,0.4
	C400.2,240.1,399.7,238.9,400.3,238.7z"/>
<g>
	<path class="st9" d="M346,186.8l-3.4,1.1c0,0,1.8,1.9,1.6,2.6c-0.4,1.6-1.5,1.6-2.1,1.5c1.1,0.4,2.1,0.8,2.7,1.6
		c0-1.1,0.1-3.2,2-2.3c2.6,1.1,1.2-4,1.2-4L346,186.8z"/>
	<polygon class="st9" points="341.7,191.9 341.7,191.9 341.7,191.9 	"/>
</g>
<path class="st10" d="M323.8,177.3c-1.1-0.2-2-0.8-2.8-0.6l-0.8-1.6l-1.1,4c-0.1,0.1-0.1,0.3-0.1,0.5l0,0l0,0c0,0.4,0.3,0.8,0.8,1.3
	c0.3,0.3,0.7,0.5,1.1,0.7C321,179.5,322.4,178.2,323.8,177.3z"/>
<path class="st7" d="M325.8,203.9c0.1-0.2,0.2-0.3,0.2-0.5c0.3-0.7,0.6-2,0.5-4l-2,0c-1-1.9-0.1-2.4-2.5-3.3c0,0-3-1.4-3.4,0.8
	c-0.1,0.4-0.4,0.8-0.7,1l-4.2-1.3c0,0-0.5,1.9-0.4,3.3l0,0c0,0,0,0.1,0,0.1c0.4,1.6,6,5.5,8.7,5.5
	C323.6,205.6,325.1,205,325.8,203.9L325.8,203.9C325.8,203.9,325.8,203.9,325.8,203.9z"/>
<path class="st9" d="M392.9,260c0,0,2.2,3.8,0.6,6.8c1-0.7,2.1-1.7,2.9-3.3c0,0,0,0,0-0.1c1-1.6,1.9-5.7,1.9-5.7l-0.9-0.5
	c-0.1-0.8-0.2-1.5-0.3-2.4l-6,1.3L392.9,260z"/>
<path class="st8" d="M325.8,203.5c0.1-0.2,0.2-0.3,0.2-0.5c0.3-0.7,0.6-2,0.5-4l-2,0c-1-1.9-0.1-2.4-2.5-3.3c0,0-3-1.4-3.4,0.8
	c-0.1,0.4-0.4,0.8-0.7,1l-4.2-1.3c0,0-0.5,1.9-0.4,3.3l0,0c0,0,0,0.1,0,0.1c0.4,1.6,6,5.5,8.7,5.5
	C323.6,205.2,325.1,204.6,325.8,203.5L325.8,203.5C325.8,203.5,325.8,203.5,325.8,203.5z"/>
<path class="st10" d="M359.3,196.3c0,0-5.7-2-5.2,1.2c0.2,1.8-1.4,2.9-2.8,3.5c2.4,2,4,3.3,7.7,4.7c1.6-1.9,1.6-4.8,1.6-4.8
	L359.3,196.3z"/>
<path class="st10" d="M388.7,254.9c0,0,0.7,2.8-0.8,6.7c1.7,3.6,1.9,6.1,3.4,6.1c0.5,0,1.4-0.3,2.3-0.9c0.4-0.8,1.1-3-0.4-5.5
	C391.4,258.2,388.7,254.9,388.7,254.9z"/>
<path class="st10" d="M314.9,198c-0.6-0.6-1-1.1-1.1-1.5c0-0.1,0-0.2,0-0.3l0,0c0,0-0.5,1.9-0.4,3.3l0,0c0,0,0,0.1,0,0.1
	c0.1,0.5,0.8,1.3,1.7,2.1C314.4,200.1,314.5,198.9,314.9,198z"/>
<g>
	<path class="st9" d="M326.5,199.1C326.5,199,326.5,199,326.5,199.1L326.5,199.1C326.5,199,326.5,199,326.5,199.1z"/>
	<path class="st9" d="M326.5,199.1c0,1.4-1.2,2.3-2.7,2.7c0.4,0.5,0.7,1,0.7,1.6c0,0.6-0.3,1.1-0.6,1.4c0.8-0.3,1.5-0.7,1.9-1.4h0
		c0,0,0,0,0,0c0.1-0.2,0.2-0.3,0.2-0.5C326.3,202.4,326.7,201.1,326.5,199.1z"/>
</g>
<path class="st10" d="M380,229.4l-0.7-1.8l-1.7-0.8c0,0-0.3,0.4-0.6,0.9c-0.7,3.4-2.1,6.2-0.8,6.5c0.4,0.1,1,0.1,1.5,0.1
	C376.7,231.5,380,229.4,380,229.4z"/>
<path class="st14" d="M413.3,248.5l-0.6-5.7l-5.6-0.2c0,0,0,2.5-0.7,5.2c1.1,1.2,2.2,2.1,3,2.1C410.4,249.8,411.9,249.2,413.3,248.5
	L413.3,248.5z"/>
<path class="st10" d="M338.3,186c0,0-1.7,0.3-2,1.4c-0.3,0.8,0.2,1.9,0.5,2.6c1.1,0.7,2.3,1.1,3.4,1.4c0.8-0.1,1.5-0.3,1.7-0.8
	c0.7-1.3,0.1-2.9-0.4-3.5C340.9,186.7,338.3,186,338.3,186z"/>
<path class="st10" d="M383.7,246.8l-0.7-2.7l-1.4-0.3c0,0-1.2,3.5-1.2,4.4c0,0,0,0,0,0.1c0,0,0,0,0,0c0,0,0,0,0,0
	c0.1,0.9,0.6,2.1,1.5,3.5C382.3,248.4,383.7,246.8,383.7,246.8z"/>
<path class="st15" d="M398.2,251c-2.1-9.6-3.3-13-1.9-14.8c1.3-1.8,3.3-0.7,5.4,0.9c2.1,1.6,6.7,9,8.9,9c2.3,0,7.9-3.5,7.9-3.5
	s-0.1-0.3-0.5-0.8c-16.1-32.8-45.2-58.1-80.5-69.3c-2.4-0.2-4.4-0.4-5.5-0.4c0,0-1.9,0.9-6.1,1.5c-4.2,0.6-7.3,1.3-4.9,3.6
	c2.4,2.2,11.8,1.9,14.7,6.7c2.8,4.8,9.3,3.1,10.6,6.4c1.3,3.3,12.3,13,15.9,11.5c3.6-1.5,4.5-2.4,4.8,0.2c0.3,2.5,1.8,3.4,4,4.8
	c2.2,1.3,6.4,6.1,7.5,11.7c1,5.5-3,11.4-1,11.8c1.9,0.4,5.7-1,7,1.5c1.4,2.5,0.8,4.5,2.2,6.3c1.5,1.8-3.6,3.9-4.8,5.5
	c-1.2,1.6,3.1,7,6,11.8c2.8,4.8,2.8,8.4,4.6,8.4C394.3,263.8,400.3,260.5,398.2,251z"/>
<path class="st12" d="M398.2,250.6c-2.1-9.6-3.3-13-1.9-14.8c1.3-1.8,3.3-0.7,5.4,0.9c2.1,1.6,6.7,9,8.9,9c2.3,0,7.6-3.5,7.6-3.5
	s0-0.2-0.4-0.7c-16.1-32.8-45.1-58.1-80.3-69.3c-2.4-0.2-4.4-0.4-5.5-0.4c0,0-1.9,0.9-6.1,1.5c-4.2,0.6-7.3,1.3-4.9,3.6
	c2.4,2.2,11.8,1.9,14.7,6.7c2.8,4.8,9.3,3.1,10.6,6.4c1.3,3.3,12.3,13,15.9,11.5c3.6-1.5,4.5-2.4,4.8,0.2c0.3,2.5,1.8,3.4,4,4.8
	c2.2,1.3,6.4,6.1,7.5,11.7c1,5.5-3,11.4-1,11.8c1.9,0.4,5.7-1,7,1.5c1.4,2.5,0.8,4.5,2.2,6.3c1.5,1.8-3.6,3.9-4.8,5.5
	c-1.2,1.6,3.1,7,6,11.8c2.8,4.8,2.8,8.4,4.6,8.4C394.3,263.4,400.3,260.1,398.2,250.6z"/>
<linearGradient id="SVGID_7_" gradientUnits="userSpaceOnUse" x1="362.9432" y1="188.0082" x2="380.1035" y2="245.2095">
	<stop  offset="0" style="stop-color:#F1F2F2"/>
	<stop  offset="0.1296" style="stop-color:#F1F2F2;stop-opacity:0.8704"/>
	<stop  offset="1" style="stop-color:#F1F2F2;stop-opacity:0"/>
</linearGradient>
<path class="st16" d="M398.2,250.6c-2.1-9.6-3.3-13-1.9-14.8c1.3-1.8,3.3-0.7,5.4,0.9c2.1,1.6,6.7,9,8.9,9c2.3,0,7.6-3.5,7.6-3.5
	s0-0.2-0.4-0.7c-16.1-32.8-45.1-58.1-80.3-69.3c-2.4-0.2-4.4-0.4-5.5-0.4c0,0-1.9,0.9-6.1,1.5c-4.2,0.6-7.3,1.3-4.9,3.6
	c2.4,2.2,11.8,1.9,14.7,6.7c2.8,4.8,9.3,3.1,10.6,6.4c1.3,3.3,12.3,13,15.9,11.5c3.6-1.5,4.5-2.4,4.8,0.2c0.3,2.5,1.8,3.4,4,4.8
	c2.2,1.3,6.4,6.1,7.5,11.7c1,5.5-3,11.4-1,11.8c1.9,0.4,5.7-1,7,1.5c1.4,2.5,0.8,4.5,2.2,6.3c1.5,1.8-3.6,3.9-4.8,5.5
	c-1.2,1.6,3.1,7,6,11.8c2.8,4.8,2.8,8.4,4.6,8.4C394.3,263.4,400.3,260.1,398.2,250.6z"/>
<path class="st11" d="M322.4,192.8c0,0-3-1.4-3.4,0.8c-0.4,2.2-5.7,1.5-5.2,3.1c0.4,1.6,6,5.5,8.7,5.5c2.7,0,5.5-2,3.3-5
	C323.5,194.4,325.3,193.9,322.4,192.8z"/>
<path class="st12" d="M322.4,192.5c0,0-3-1.4-3.4,0.8c-0.4,2.2-5.7,1.5-5.2,3.1c0.4,1.6,6,5.5,8.7,5.5c2.7,0,5.5-2,3.3-5
	C323.5,194.1,325.3,193.6,322.4,192.5z"/>
<linearGradient id="SVGID_8_" gradientUnits="userSpaceOnUse" x1="319.8891" y1="196.9322" x2="322.9685" y2="204.8519">
	<stop  offset="0" style="stop-color:#F1F2F2"/>
	<stop  offset="0.1296" style="stop-color:#F1F2F2;stop-opacity:0.8704"/>
	<stop  offset="1" style="stop-color:#F1F2F2;stop-opacity:0"/>
</linearGradient>
<path class="st17" d="M322.4,192.5c0,0-3-1.4-3.4,0.8c-0.4,2.2-5.7,1.5-5.2,3.1c0.4,1.6,6,5.5,8.7,5.5c2.7,0,5.5-2,3.3-5
	C323.5,194.1,325.3,193.6,322.4,192.5z"/>
<path class="st7" d="M419,353.6c5.6-14.8,8.7-30.9,8.7-47.7c0-9.2-0.9-18.2-2.7-26.9c-2-5.4-4.3-11.2-5.9-15.2
	c0.2-0.9,0.6-2.4,0.6-2.4l-2.2-7.7c0,0-2.7,2.8-3.7,4.9c0,0,0,0.1-0.1,0.1c0,0,0,0,0,0c-0.4,0.7-0.2,1.8,0.1,2.8
	c0.4,2.1,1,4-0.2,4.4c-1.6,0.6-4.3-0.6-6.4-5.4c-1.6-3.6-1.5-5.4-2.9-5.5l0.3-3.5c0,0-4.5,3.8-6.3,7.6c0,0,0,0,0,0
	c-0.9,1.5-1.4,3.1-1.4,4.4c0,1-0.2,2-0.5,2.9l0,0c0,0-2.3,2.1-3.6,4.8c-0.1,0.2-0.2,0.4-0.3,0.6c0,0,0,0,0,0l0,0
	c-0.8,2-1.1,5.3-1,10.5c0.2,7.8,0.9,9.3-1.5,12.6c-2.4,3.3,0.6,27.7,0,34.4c-0.6,6.7-1.6,5.1,0.2,8.8c1.8,3.7,7.7,17.4,13.1,16.9
	c5.3-0.5,8.2-8.8,10.4-8.8c1.1,0,1.1,1.1,0.6,3.5c-0.1,0.3-0.2,0.6-0.2,1c-0.3,1-0.6,2.1-1,3.5c-4.2,12.4-15.4,31.6-15.4,31.6l1,0.6
	c0,0,0,0,0,0l0.5,0.3l4.6-3.8c4.3-6.2,8.1-12.8,11.4-19.8l3.9-6.5L419,353.6z"/>
<path class="st8" d="M419.3,353.4c5.6-14.8,8.7-30.9,8.7-47.7c0-9.2-0.9-18.2-2.7-26.9c-2-5.4-4.3-11.2-5.9-15.2
	c0.2-0.9,0.6-2.4,0.6-2.4l-2.2-7.7c0,0-2.7,2.8-3.7,4.9c0,0,0,0.1-0.1,0.1c0,0,0,0,0,0c-0.4,0.7-0.2,1.8,0.1,2.8
	c0.4,2.1,1,4-0.2,4.4c-1.6,0.6-4.3-0.6-6.4-5.4c-1.6-3.6-1.5-5.4-2.9-5.5l0.3-3.6c0,0-4.5,3.8-6.3,7.6c0,0,0,0,0,0
	c-0.9,1.5-1.4,3.1-1.4,4.4c0,1-0.2,2-0.5,2.9l0,0c0,0-2.3,2.1-3.6,4.8c-0.1,0.2-0.2,0.4-0.3,0.6c0,0,0,0,0,0l0,0
	c-0.8,2-1.1,5.3-1,10.5c0.1,7.8,0.9,9.3-1.5,12.6c-2.4,3.3,0.6,27.7,0,34.4c-0.6,6.7-1.6,5.1,0.2,8.8c1.8,3.7,7.7,17.4,13.1,16.9
	c5.3-0.5,8.2-8.8,10.4-8.8c1.1,0,1.1,1.1,0.6,3.5c-0.1,0.3-0.2,0.6-0.2,1c-0.3,1-0.6,2.1-1,3.5c-4.2,12.4-15.4,31.6-15.4,31.6l1,0.6
	c0,0,0,0,0,0l0.5,0.3l4.6-3.8c4.3-6.2,8.1-12.8,11.4-19.8l3.9-6.5L419.3,353.4z"/>
<path class="st9" d="M396.6,266.5h5.4l3.6-7.2c0,0,0-1.9-0.1-3.8c-0.3-0.4-0.6-0.7-1-0.7l0.2-3.1c-0.2,0.1-0.6,0.2-0.9,0.4
	c-1.4,1.3-4.1,4-5.3,6.7c0,0,0,0,0,0c-0.9,1.5-1.4,3.1-1.4,4.4c0,1-0.2,2-0.5,2.9l0,0c0,0,0,0-0.1,0.1
	C396.6,266.5,396.6,266.5,396.6,266.5z"/>
<path class="st9" d="M414.4,262.9c0.6,0.5,1.2,1,1.5,1c0.4-0.1,2.4-0.5,3.8-0.9c0.2-0.8,0.4-1.7,0.4-1.7l-0.9-3.1l-1.6-3.8
	c0,0-0.9,5.1-2.2,4.8c-0.4-0.1-0.8-0.5-1.1-0.9c0,0.1-0.1,0.1-0.1,0.2c0,0,0,0.1-0.1,0.1c0,0,0,0,0,0c-0.4,0.7-0.2,1.8,0.1,2.8
	C414.2,261.8,414.3,262.4,414.4,262.9z"/>
<path class="st9" d="M401.5,281.4l-6.1-4.3c0,0-0.7,9.7-2.4,8.3c-0.6-0.5-0.9-1.3-1.2-2.1c0.2,6.8,0.8,8.3-1.5,11.5
	c0,0.1-0.1,0.1-0.1,0.2c2.4-2,3.6-4.6,3.6-4.6s1.3,4.8,1.3,5.2c0,0.3-0.6,3.7-0.8,4.6c2.8-0.6,7.8-9.2,7.8-9.2L401.5,281.4z"/>
<path class="st9" d="M404.1,346.7c0,0,3.4,4.8,0,8.1c4.9-1.1,7.6-8.7,9.8-8.7c1.7,0,0.9,2.8-1,8.9c1-1.6,2.8-4.1,2.1,0.4
	c-1,6.1,3.7-6.8,3.7-6.8l1.3-11.4l-9.3,1.6L404.1,346.7z"/>
<path class="st10" d="M397.1,271.9l3.6-3.3l-4.3-2.2c-0.6,0.6-2.3,2.3-3.4,4.6c-0.1,0.2-0.2,0.4-0.3,0.6c0,0,0,0,0,0l0,0
	c-0.6,1.5-0.9,3.6-1,6.7C392.6,273.2,397.1,271.9,397.1,271.9z"/>
<path class="st7" d="M296.1,179.6l0.1-4.6l-4.1-0.6l-15.5-0.1c0,0-3.6,1.8-3.6,1.9c0,0,0.9,0.9,1.7,1.6c-4,0.9-8.3,2.8-11.2,4.6
	c-1.6,1.1-5.6,2.4-9.3,3.7l-0.1-1.6l-5.1-0.2l-2.4,0.7v4.8c0,0,0,0.1,0,0.1v0c0,0,0,0,0,0c0,0,0,0,0,0c0.7,1.8,7,2.4,10.2,0.7
	c3.1-1.6,10.2-3.4,11.7-1.5c1.5,1.9,1.5,17.1,3.7,20.5c2,3.1,11.3,12,14.6,12.5c0.2,0,0.4,0.1,0.6,0c2-0.3,1-6.9,1-6.9l-0.4-0.6
	c-0.4-3.7-0.7-7.8,0.9-10.3c1.9-3.2,3.9-5.1,4.8-7.1c0,0,0,0,0,0c1-1.7,0.5-7.1,0.5-7.1l-2.4,1.1c-1.9-1.2-4.5-1.8-5.6-3.6
	c-1.6-2.7-4.2-4.5-6.7-4.5c-2.5,0-5.5-1-4.8-2.2c0.7-1.2,20.4,1,20.5,0C295.1,180,296.4,180.1,296.1,179.6z"/>
<path class="st8" d="M296.1,179.2l0.1-4.6l-4.1-0.6l-15.5-0.1c0,0-3.6,1.8-3.6,1.9c0,0,0.9,0.9,1.7,1.6c-4,0.9-8.3,2.8-11.2,4.6
	c-1.6,1.1-5.6,2.4-9.3,3.7L254,184l-5.1-0.2l-2.4,0.7v4.8c0,0,0,0.1,0,0.1v0c0,0,0,0,0,0c0,0,0,0,0,0c0.7,1.8,7,2.4,10.2,0.7
	c3.1-1.6,10.2-3.4,11.7-1.5c1.5,1.9,1.5,17.1,3.7,20.5c2,3.1,11.3,12,14.6,12.5c0.2,0,0.4,0.1,0.6,0c2-0.3,1-6.9,1-6.9l-0.4-0.6
	c-0.4-3.7-0.7-7.8,0.9-10.3c1.9-3.2,3.9-5.1,4.8-7.1c0,0,0,0,0,0c1-1.7,0.5-7.1,0.5-7.1l-2.4,1.1c-1.9-1.2-4.5-1.8-5.6-3.6
	c-1.6-2.7-4.2-4.5-6.7-4.5c-2.5,0-5.5-1-4.8-2.2c0.7-1.2,20.4,1,20.5,0C295.1,179.6,296.4,179.6,296.1,179.2z"/>
<path class="st9" d="M389.4,334.7l3.5-4l7.9-6.6c0,0-4.8-15-6.9-4.7c-2.1,10.3-3.9-0.4-3.9-0.4v0c0.2,4.3,0.4,8.1,0.2,10.2
	C389.9,332.5,389.5,333.8,389.4,334.7z"/>
<path class="st10" d="M395.3,296.2l3.4-1.9c0,0-3.6-6.3-5.1-3.7c-1,1.8-2.4,3.3-3.2,4c-0.1,0.1-0.1,0.2-0.2,0.3
	c-0.6,0.9-0.9,3.3-0.9,6.4C389.8,297.4,395.3,296.2,395.3,296.2z"/>
<path class="st10" d="M397.1,331.4c0,0-2.9-1.5-3.8-0.9c-0.9,0.6-3.9,4.2-3.9,4.2v0c-0.1,0.9,0,1.4,1,3.4c0.3,0.6,0.6,1.3,1,2.2
	C390.6,336,397.1,331.4,397.1,331.4z"/>
<path class="st10" d="M404.1,376.3c-0.6-0.9,1.2-4.3,1.2-4.3l0,0c-3.9,7.6-7.8,14-7.8,14l1.4,1l2.5-2.1c0.5-0.7,1.1-1.6,1.8-2.7
	c3.5-6.1,6.8-13.9,6.8-13.9S404.7,377.2,404.1,376.3z"/>
<path class="st11" d="M428.6,274.4c-3.5-9.5-7.9-20.2-7.9-20.2s-3.6-1.9-3.6,0.7c0,2.7,1.6,5.8,0,6.4c-1.6,0.6-4.3-0.6-6.4-5.4
	c-2.1-4.8-1.3-6.3-4.8-5.1c-3.4,1.2-5.5,5.5-5.5,8.1c0,2.5-0.9,4.9-2.8,6.3c-1.9,1.3-2.7,4.8-2.5,12.6c0.1,7.8,0.9,9.3-1.5,12.6
	c-2.4,3.3,0.6,27.7,0,34.4c-0.6,6.7-1.6,5.1,0.2,8.8c1.8,3.7,7.7,17.4,13.1,16.9c5.3-0.4,8.2-8.8,10.4-8.8c2.2,0,0.1,4.9-3.3,16.5
	c-3.4,11.5-15,28.7-15,28.7s2.2-1.2,5.5-4.7c16.9-22.6,26.9-50.6,26.9-81C431.2,292.1,430.3,283.1,428.6,274.4z"/>
<path class="st12" d="M429,274.1c-3.5-9.5-7.9-20.2-7.9-20.2s-3.6-1.9-3.6,0.7c0,2.7,1.6,5.8,0,6.4c-1.6,0.6-4.3-0.6-6.4-5.4
	c-2.1-4.8-1.4-6.3-4.8-5.1c-3.4,1.2-5.5,5.5-5.5,8.1c0,2.5-0.9,4.9-2.8,6.3c-1.9,1.3-2.7,4.8-2.5,12.6c0.2,7.8,0.9,9.3-1.5,12.6
	c-2.4,3.3,0.6,27.7,0,34.4c-0.6,6.7-1.6,5.1,0.2,8.8c1.8,3.7,7.7,17.4,13.1,16.9c5.3-0.4,8.2-8.8,10.4-8.8c2.2,0,0.1,4.9-3.3,16.5
	c-3.4,11.5-15,28.7-15,28.7s2.2-1.2,5.5-4.7c16.9-22.6,26.9-50.6,26.9-81C431.7,291.7,430.7,282.8,429,274.1z"/>
<linearGradient id="SVGID_9_" gradientUnits="userSpaceOnUse" x1="376.0367" y1="280.55" x2="411.2361" y2="321.4704">
	<stop  offset="0" style="stop-color:#F1F2F2"/>
	<stop  offset="0.1296" style="stop-color:#F1F2F2;stop-opacity:0.8704"/>
	<stop  offset="1" style="stop-color:#F1F2F2;stop-opacity:0"/>
</linearGradient>
<path class="st18" d="M429,274.1c-3.5-9.5-7.9-20.2-7.9-20.2s-3.6-1.9-3.6,0.7c0,2.7,1.6,5.8,0,6.4c-1.6,0.6-4.3-0.6-6.4-5.4
	c-2.1-4.8-1.4-6.3-4.8-5.1c-3.4,1.2-5.5,5.5-5.5,8.1c0,2.5-0.9,4.9-2.8,6.3c-1.9,1.3-2.7,4.8-2.5,12.6c0.2,7.8,0.9,9.3-1.5,12.6
	c-2.4,3.3,0.6,27.7,0,34.4c-0.6,6.7-1.6,5.1,0.2,8.8c1.8,3.7,7.7,17.4,13.1,16.9c5.3-0.4,8.2-8.8,10.4-8.8c2.2,0,0.1,4.9-3.3,16.5
	c-3.4,11.5-15,28.7-15,28.7s2.2-1.2,5.5-4.7c16.9-22.6,26.9-50.6,26.9-81C431.7,291.7,430.7,282.8,429,274.1z"/>
<path class="st9" d="M295,175.5l-0.1,5c0.1,0,0.1-0.1,0.1-0.1c0.1-0.8,1.4-0.7,1-1.2l0.1-4.6l-2-0.3l-0.2,0.1L295,175.5z"/>
<path class="st9" d="M275.9,180c2.1-0.1,6.3,0.1,10.2,0.3l0,0c-3.2-1.3-4.3-2.6-3.8-3.5c0.4-0.9,2.5-1.4,2.5-1.4l0.3-1.2l-3.7-0.4
	l-4.9,0c0,0-3.6,1.8-3.6,1.9c0,0,0.9,0.9,1.7,1.6c-0.7,0.2-1.5,0.4-2.2,0.6C273.2,178.3,274.6,179.2,275.9,180z"/>
<path class="st12" d="M253.5,184.1"/>
<path class="st9" d="M290.7,196l-0.1,0c-0.6,0.8-1.2,1.7-1.8,2.7c-1.4,2.3-1.3,5.8-1,9.1c0.1-1.6,0.4-3,1.1-4.2c0.7-1.1,1.4-2.1,2-3
	c0,0,0,0,0,0C288.6,201.1,290.7,196,290.7,196z"/>
<path class="st9" d="M288.2,214.8c-0.1,0.7-0.2,1.3-0.5,1.6c-0.2,0.2-0.6,0.3-1,0.2c0.6,1.8,1.1,3.9,0.6,5.2
	C289.3,221.5,288.2,214.8,288.2,214.8L288.2,214.8z"/>
<path class="st9" d="M268.4,183.6c-1.5-1.9-8.5-0.1-11.7,1.5c-0.2,0.1-0.4,0.2-0.6,0.3c0,0.1-0.1,0.2-0.1,0.3c0,0,3.8,0.3,3.5,1.5
	c-0.3,1.2-4.1,3.6-4.2,3.6c0.6-0.1,1.1-0.3,1.5-0.6c3.1-1.6,10.2-3.4,11.7-1.5c0.4,0.6,0.7,2.3,1,4.5l0,0c0,0,0-2.5,0.3-2.5
	c0,0,0,0,0,0C269.3,187.3,269,184.4,268.4,183.6z"/>
<path class="st10" d="M272.1,204.1c-0.4-0.6-0.8-1.7-1-3l-0.1-0.1c0,0-0.2,2.1-0.1,4.3c0.3,1.6,0.7,3,1.2,3.8c0.6,0.9,1.9,2.4,3.5,4
	c0,0-2.1-4.8,1.2-3.7c0.1,0,0.2,0,0.2,0.1C274.8,207.4,272.9,205.3,272.1,204.1z"/>
<path class="st10" d="M249.9,185.9L249.9,185.9c-1.7-0.2-3-0.8-3.4-1.6c0,0,0-0.1,0-0.1h0v4.8c0,0,0,0.1,0,0.1v0c0,0,0,0,0,0
	c0,0,0,0,0,0c0.3,0.8,1.9,1.4,3.7,1.6C247.6,189.5,249.9,185.9,249.9,185.9z"/>
<path class="st10" d="M294.9,180.5l0.1-5l-1.9,0.3c0.3,4.1-3.8,4.8-3.9,4.8C292.1,180.7,294.4,180.7,294.9,180.5L294.9,180.5z"/>
<path class="st11" d="M295,174c0,0-13.2-2.4-17.8-1.8c-4.6,0.6-10.3,2.8-13.8,5.1c-3,2-14.4,5-16.6,6.9l-0.4,0.1l0,0.4
	c0,0.1,0,0.2,0,0.2c0.1,0.3,0.4,0.6,0.9,0.8l0,0l0,0c2,1.1,6.7,1.3,9.3-0.1c3.1-1.6,10.2-3.4,11.7-1.5c1.5,1.9,1.5,17.1,3.7,20.5
	c2.2,3.4,13.6,14.2,15.6,12.3c1.9-1.9-1.9-12.7,1-17.7c3-4.9,6.1-6.9,5.1-10.5c-1-3.6-6.1-3.6-7.8-6.3c-1.6-2.7-4.2-4.5-6.7-4.5
	c-2.5,0-5.5-1-4.8-2.2c0.7-1.2,20.4,1,20.5,0C295.2,174.8,297.4,175.2,295,174z"/>
<path class="st7" d="M339.6,390.3l-1.6-0.2c-1.3-1.2-3.1-2.2-3.1-2.2h-13.6c0,0-0.9-1.5-2.7-1.6c-1.8-0.1-4.3,0.9-5.1,1.6
	c-0.7,0.7-4.9,1.6-4.9,1.6s0.3-2.2,0.3-3.5c0-1.3,1.2-1.6,1.2-2.9c0-1.3-3.9-5.9-5.8-6.9c-1.9-1-11.2,0-11.2,0s-0.3-2.2-1.8-3.4
	c-1.5-1.2-6.1-2.1-6.6-3.8c-0.4-1.8-3.1-3.4-4.9-3.2c-1.8,0.1-2.4-0.9-4.1-0.9c-1.7,0-4.1,2.4-5.7,3.1c-1.6,0.7-2.8-1.1-4.1-2.8
	c-1.3-1.7-2.2-2.8-2.8-2.5c-0.6,0.3-0.9,4.6-0.9,6s-1,0.7-1.3,0.7c-0.3,0.1,0-4.7-0.6-6.2c-0.6-1.4-5.3,3.7-7.4,4.8l-1-2
	c0,0-0.6,1-0.5,4.3c0,0.1,0,0.1,0,0.1c0,0.3,0,0.6,0,0.9c-0.1,2.2-1,1.8-1,1.8s0.5,0.2,1,0.4c0,0.2,0,0.3-0.1,0.4
	c-0.4,1.8-1.8-1.2-3.4-1.8c-1.2-0.4-2.6,0.7-4.1,1.3v-1.1l-4.5-0.7c-1.4-1.6-2.6-3.5-3.1-3.7c-0.9-0.3-0.7-6.3-0.9-9.1
	c-0.2-2.8-3-1.6-7.3-1.5c-4.3,0.1-3.4-12.9-4-14.9c-0.6-1.9-6.7-1.5-6.9,1.6c-0.2,3.1-1.8,5.6-3.6,5.7c-1.8,0.1-9.4-9.4-9.9-14.3
	c-0.5-4.9-0.5-13.2,3.1-15.2c3.6-1.9,8.7,0.4,9.9,0c1.2-0.4,0.2-3.4,3.1-4.4c3-1,9.3,4.7,10.5,9.1c1.1,3.9,4.4,5.8,5.8,5.2
	c0,0,0,0,0,0c0,0,0,0,0,0c0.2-0.1,0.3-0.2,0.4-0.4c0-0.1,0.1-0.1,0.1-0.2c0.6-1.2,0.3-3.7,0.3-3.7l-1.3-1.4c-0.5-1.2-1-2.4-1.3-3.2
	c-0.9-2-1.6-4-1.6-6.5c0-2.4,7.6-11.8,8.6-15.5c0,0,0,0,0,0c0.7-1.9-0.6-6.5-0.6-6.5l-1,1.5c-0.1-0.1-0.2-0.2-0.3-0.3
	c-0.9-1,0.3-2.8,0.3-2.8s0,0,2.1-0.1c2.1-0.1,1.9-3.5,2.2-5.6c0.3-2.1,2.2-2.9,4.3-2.8c2.1,0.1,2.8-1,2.8-3.4c0-2.4,1.9-5.9,4-7.5
	c2.1-1.6,3.3,0.3,3.7,1.6c0.5,1.3,3.9-0.3,7.3-3.7c1.6-1.5,2.4-2.7,2.7-3.7c0,0,0,0,0,0c0-0.1,0-0.1,0.1-0.2c0,0,0-0.1,0-0.1
	c0.5-1.9-0.2-5.6-0.2-5.6l-0.4-0.7l-1.2,1.1l-0.1,0.3c-0.4,0.2-0.7,0.7-0.7,1.2c0,1.2-1.9,2.6-3.4,2.6c-1.5,0-2.5-2.6-2.1-4.7
	c0.3-1.4,2.2-2.3,2.2-2.9l0,0l0.1-2.9c3-0.6,5.5-2.8,6.2-4.1c0.9-1.6,3.1-0.1,6.3-1.5c0.4-0.2,0.6-0.4,0.8-0.6c0,0,0,0,0,0
	c0.8-0.6,0.1-5.3,0.1-5.3l-3.2-0.5c-0.5-0.7-0.8-1.3-0.9-1.8c-0.6-2.6-5.4-2.8-7.6-5.3c-2.2-2.5-1-7.5-2.5-8.5c-1.5-1-3,0.7-3.1,1.8
	c-0.2,1-5.1,0.9-6-0.3c-0.9-1.2,0.8-4.9-1.3-6.5c-2.1-1.7-7-1.7-8.5,0c-1.5,1.7-0.9,17.1-3,17.7c-2.1,0.6-2.1,3.7-2.1,8.1
	c0,4.4-1.8,5-3.3,4.3c-1.5-0.7-0.3-6.5-1.6-10.9c-1.3-4.4-7.3-4.1-8.8-5.9c-1.5-1.8,0.7-6.8,3.7-9c3-2.2,5.2-6,6.4-7.8
	c1.1-1.6,6,1.2,8,0.8c0,0,0,0,0,0c0,0,0.1,0,0.1,0c0,0,0.1,0,0.1,0c0,0,0.1,0,0.1-0.1c0.1,0,0.1-0.1,0.2-0.1
	c0.1-0.1,0.2-0.3,0.3-0.5c0.7-1.5,0.2-6.1,0.2-6.1l-0.2,1.2c-0.3-2.4-0.7-4.6-0.7-4.6s4,0.6,6-1.4c1.9-2.1,1.3-4.7,3.4-6.3
	c2.1-1.6,2.1,5.1,1.2,7.8c-0.6,1.8-1.9,2.4-3.3,2.9l-1.2-2.5l-1-0.5c0,0-0.5,3.6-0.2,4.5c0,0,0,0,0,0c0.1,1.6,3.9,5,5.5,6.9
	c1.9,2.4,5.8,0.1,5.8-1.4c0-1.4,3.1-4.6,3-5.8v0c0.1-0.5,0.2-1.6,0.2-2.6c0.5-0.1,0.9-0.3,1.1-0.6c0,0,0.1-0.1,0.1-0.1
	c0,0,0,0,0-0.1c0,0,0,0,0,0c0,0,0,0,0,0c0.1-0.1,0.1-0.3,0.1-0.5c0.3-1.4,0.1-4,0.1-4l-3.1-1c-0.6-0.6-1-1.1-1.2-1.5
	c-0.3-0.8,0-2.4,0.2-4.1c0,0,0,0,0,0c0.7-3.1,0.2-6.9,0.2-6.9l-2.9,2.2c-2.9-0.5-7.4-0.1-9.1-0.1c-2.4,0-4.5-1.8-5.8-2.6
	c-1.3-0.9-11.8,8.4-12.4,8.7c-0.6,0.3-2.6-0.6-3.9-1.6c-1.3-1,3.3-3.3,3.8-5.3c0,0,0,0,0,0c0,0,0-0.1,0-0.1c0,0,0,0,0,0c0,0,0,0,0,0
	c0.1-0.8,0.1-4.2,0.2-4.6c0-0.4-0.2-0.6-0.2-0.6h-2.5l-1.9,2.2l0.3,1.8c-10.6,6.4-20.3,14.3-28.7,23.2l-0.4-0.9c0,0-1.4-0.7-2.2,0.5
	c-0.9,1.1-4,4.4-4,4.4l-1.1,1.1c0,0-0.7,3.5-0.2,4.1c0.1,0.2,0.2,0.4,0.3,0.6c0.6,0.8,4.4-4.9,6-6.1c1.6-1.2,1,2.9-4.6,12.2
	c-5.6,9.2-16.8,35.5-19,46.3c-2.2,10.8,1,17.3,1,17.3s0.8,14.1,3.4,24.9c2.6,10.8,10,18.8,10,18.8s2.4,4.3,3.8,5.9
	c1.4,1.6,2.8,2.2,6.2,7.1c3.4,4.9,13.9,7.6,16.2,7.5c2.3-0.1,2.5,0.8,3.9,2.1c1.4,1.3,6.6,3.4,9.1,3.5c2.5,0.1,4.6,6.3,8.4,9.5
	c3.8,3.2,7.1,3.1,8.4,3.5c1.3,0.4,0.9,2.6,2.8,2.5c1.9-0.2,1.1,0.2,2.3-1.4c1.2-1.6,1.8-0.4,4.7,1.6c2.8,2.1,2.5,7.9,1.3,15.7
	c-1.2,7.8,13.9,17.7,17.1,20.2c3.1,2.5,7,2.8,10.8,5c3.7,2.2,7.3,5.9,7.9,8.5c0.6,2.6,9.5,8.4,10,8.7c1.1,0,2.1-0.1,3.2-0.1
	c6.4-0.5,9.8-2.6,12.3-3.8c2.8-1.3,4-4.4,4.6-6.5c0.6-2.1,4-4,8.5-6.9c4.5-2.9,4.2-7.6,4.6-11.5c0.5-3.8,3.6-6.9,6-9.9
	c0.6-0.7,1-1.4,1.3-2.1c0,0,0,0,0,0C340.4,394.1,339.6,390.3,339.6,390.3z M258.8,254.7l-0.8,0.5l0.5,1.9c-3.2,1.4-5.2,5.6-5.2,5.6
	s0-0.9-0.3-3.5C252.7,257,255.6,255.3,258.8,254.7z"/>
<path class="st11" d="M296.1,174.2l-2-0.3l1.5,0.7c0,0,0.6,0.3,0.5,0.2C296.1,174.6,296.1,174.2,296.1,174.2z"/>
<path class="st8" d="M339.7,389.9l-1.6-0.2c-1.3-1.2-3.1-2.2-3.1-2.2h-13.6c0,0-0.9-1.5-2.7-1.6c-1.8-0.1-4.3,0.9-5.1,1.6
	c-0.7,0.7-4.9,1.6-4.9,1.6s0.3-2.2,0.3-3.5c0-1.3,1.2-1.6,1.2-2.9c0-1.3-3.9-5.9-5.8-6.9c-1.9-1-11.2,0-11.2,0s-0.3-2.2-1.8-3.4
	c-1.5-1.2-6.1-2.1-6.6-3.8c-0.4-1.8-3.1-3.4-4.9-3.2c-1.8,0.1-2.4-0.9-4.1-0.9c-1.7,0-4.1,2.4-5.7,3.1c-1.6,0.7-2.8-1.1-4.1-2.8
	c-1.4-1.7-2.2-2.8-2.8-2.5c-0.6,0.3-0.9,4.6-0.9,6c0,1.5-1,0.7-1.3,0.7c-0.3,0.1,0-4.7-0.6-6.2c-0.6-1.4-5.3,3.7-7.4,4.8l-1-2
	c0,0-0.6,1-0.5,4.3c0,0.1,0,0.1,0,0.1c0,0.3,0,0.6,0,0.9c-0.1,2.2-1,1.8-1,1.8s0.5,0.2,1,0.4c0,0.2,0,0.3-0.1,0.4
	c-0.4,1.8-1.8-1.2-3.4-1.8c-1.2-0.4-2.6,0.7-4.1,1.3V372l-4.5-0.7c-1.4-1.6-2.6-3.5-3.1-3.7c-0.9-0.3-0.7-6.3-0.9-9.1
	c-0.2-2.8-3-1.6-7.3-1.5c-4.3,0.1-3.4-12.9-4-14.9c-0.6-1.9-6.7-1.5-6.9,1.6c-0.2,3.1-1.8,5.6-3.6,5.7c-1.8,0.1-9.4-9.4-9.9-14.3
	c-0.4-4.9-0.4-13.2,3.1-15.2c3.6-1.9,8.7,0.4,9.9,0c1.2-0.4,0.2-3.4,3.1-4.4c3-1,9.3,4.7,10.5,9.1c1.1,3.9,4.4,5.8,5.8,5.2
	c0,0,0,0,0,0c0,0,0,0,0,0c0.2-0.1,0.3-0.2,0.4-0.4c0-0.1,0.1-0.1,0.1-0.2c0.6-1.2,0.3-3.7,0.3-3.7l-1.3-1.4c-0.5-1.2-1-2.4-1.3-3.2
	c-0.9-2-1.6-4-1.6-6.5c0-2.4,7.6-11.8,8.6-15.5c0,0,0,0,0,0c0.7-1.9,0.2-5.9,0.2-5.9l-1.8,0.9c-0.1-0.1-0.2-0.2-0.3-0.3
	c-0.9-1,0.3-2.8,0.3-2.8s0,0,2.1-0.1c2.1-0.1,1.9-3.5,2.2-5.6c0.3-2.1,2.2-2.9,4.3-2.8c2.1,0.1,2.8-1,2.8-3.4c0-2.4,1.9-5.9,4-7.5
	c2.1-1.6,3.3,0.3,3.7,1.6c0.5,1.3,3.9-0.3,7.3-3.7c1.6-1.5,2.4-2.7,2.7-3.7c0,0,0,0,0,0c0-0.1,0-0.1,0.1-0.2c0,0,0-0.1,0-0.1
	c0.5-1.9,0.3-5.3,0.3-5.3l-0.8-1.1l-1.2,1.1l-0.1,0.3c-0.4,0.2-0.7,0.7-0.7,1.2c0,1.2-1.9,2.6-3.4,2.6c-1.5,0-2.5-2.6-2.1-4.7
	c0.3-1.4,2.2-2.3,2.2-2.9l0,0l0.1-2.9c3-0.6,5.5-2.8,6.2-4.1c0.9-1.6,3.1-0.1,6.3-1.5c0.4-0.2,0.6-0.4,0.8-0.6l0,0
	c0.8-0.6,0.3-4.2,0.3-4.2l-3.4-1.5c-0.5-0.7-0.8-1.3-0.9-1.8c-0.6-2.6-5.4-2.8-7.6-5.3c-2.2-2.5-1-7.5-2.5-8.5c-1.5-1-3,0.7-3.1,1.8
	c-0.2,1-5.1,0.9-6-0.3c-0.9-1.2,0.8-4.9-1.3-6.5c-2.1-1.7-7-1.7-8.5,0c-1.5,1.7-0.9,17.1-3,17.7c-2.1,0.6-2.1,3.7-2.1,8.1
	c0,4.4-1.8,5-3.3,4.3c-1.5-0.7-0.3-6.5-1.6-10.9c-1.3-4.4-7.3-4.1-8.8-5.9c-1.5-1.8,0.7-6.8,3.7-9c3-2.2,5.2-6,6.4-7.8
	c1.1-1.6,6,1.2,8,0.8c0,0,0,0,0,0c0,0,0.1,0,0.1,0c0,0,0.1,0,0.1,0c0,0,0.1,0,0.1-0.1c0.1,0,0.1-0.1,0.2-0.1
	c0.1-0.1,0.2-0.3,0.3-0.5c0.7-1.5,0.3-4.9,0.3-4.9l-0.3-0.1c-0.3-2.4-0.7-4.6-0.7-4.6s4,0.6,6-1.4c1.9-2.1,1.3-4.7,3.4-6.3
	c2.1-1.6,2.1,5.1,1.2,7.8c-0.6,1.8-1.9,2.4-3.3,2.9l-1.2-2.5l-1-0.5c0,0-0.5,3.6-0.2,4.5c0,0,0,0,0,0c0.1,1.6,3.9,5,5.5,6.9
	c1.9,2.4,5.8,0.1,5.8-1.4c0-1.4,3.1-4.6,3-5.8v0c0.1-0.5,0.2-1.6,0.2-2.6c0.5-0.1,0.9-0.3,1.1-0.6c0,0,0.1-0.1,0.1-0.1
	c0,0,0,0,0-0.1c0,0,0,0,0,0c0,0,0,0,0,0c0.1-0.1,0.1-0.3,0.1-0.5c0.3-1.4,0.1-4,0.1-4l-3.1-1c-0.6-0.6-1-1.1-1.2-1.5
	c-0.3-0.8,0-2.4,0.2-4.1c0,0,0,0,0,0c0.7-3.1,0.2-6.9,0.2-6.9l-2.9,2.2c-2.9-0.5-7.4-0.1-9.1-0.1c-2.4,0-4.5-1.8-5.8-2.6
	c-1.3-0.9-11.8,8.4-12.4,8.7c-0.6,0.3-2.6-0.6-3.9-1.6c-1.3-1,3.3-3.3,3.8-5.3c0,0,0,0,0,0c0,0,0-0.1,0-0.1c0,0,0,0,0,0c0,0,0,0,0,0
	c0.1-0.8,0.1-4.2,0.2-4.6c0-0.4-0.2-0.6-0.2-0.6H227l-1.9,2.2l0.3,1.8c-10.6,6.4-20.3,14.3-28.7,23.2l-0.4-0.9c0,0-1.4-0.7-2.2,0.5
	c-0.9,1.1-4,4.4-4,4.4L189,219c0,0-0.7,3.5-0.2,4.1c0.1,0.2,0.2,0.4,0.3,0.6c0.6,0.8,4.4-4.9,6-6.1c1.6-1.2,1,2.9-4.6,12.2
	c-5.6,9.2-16.8,35.5-19,46.3c-2.2,10.8,1,17.3,1,17.3s0.8,14.1,3.4,24.9c2.6,10.8,10,18.8,10,18.8s2.4,4.3,3.8,5.9
	c1.4,1.6,2.8,2.2,6.2,7.1c3.4,4.9,13.9,7.6,16.2,7.5c2.3-0.1,2.5,0.8,3.9,2.1c1.4,1.3,6.6,3.4,9.1,3.5c2.5,0.1,4.6,6.3,8.4,9.5
	c3.8,3.2,7.1,3.1,8.4,3.5c1.3,0.4,0.9,2.6,2.8,2.5c1.9-0.2,1.1,0.2,2.3-1.4c1.2-1.6,1.8-0.4,4.7,1.6c2.8,2.1,2.5,7.9,1.3,15.7
	c-1.2,7.8,13.9,17.7,17.1,20.2c3.1,2.5,7,2.8,10.8,5c3.7,2.2,7.3,5.9,7.9,8.5c0.6,2.6,9.5,8.4,10,8.7c1.1,0,2.1-0.1,3.2-0.1
	c6.4-0.5,9.8-2.6,12.3-3.8c2.8-1.3,4-4.4,4.6-6.5c0.6-2.1,4-4,8.5-6.9c4.5-2.9,4.2-7.6,4.6-11.5c0.5-3.8,3.6-6.9,6-9.9
	c0.6-0.7,1-1.4,1.3-2.1c0,0,0,0,0,0C340.6,393.6,339.7,389.9,339.7,389.9z M259,254.2l-0.8,0.5l0.5,1.9c-3.2,1.4-5.2,5.6-5.2,5.6
	s0-0.9-0.3-3.5C252.9,256.6,255.8,254.8,259,254.2z"/>
<path class="st12" d="M295,173.4c0,0-13.2-2.4-17.8-1.8c-4.6,0.6-10.3,2.8-13.8,5.1c-3.4,2.2-17.7,5.8-16.9,7.6
	c0.7,1.8,7,2.4,10.2,0.7c3.1-1.6,10.2-3.4,11.7-1.5c1.5,1.9,1.5,17.1,3.7,20.5c2.2,3.4,13.6,14.2,15.6,12.3c1.9-1.9-1.9-12.7,1-17.7
	c3-4.9,6.1-6.9,5.1-10.5c-1-3.6-6.1-3.6-7.8-6.3c-1.6-2.7-4.2-4.5-6.7-4.5c-2.5,0-5.5-1-4.8-2.2c0.7-1.2,20.4,1,20.5,0
	C295.2,174.2,297.4,174.6,295,173.4z"/>
<g>
	<linearGradient id="SVGID_10_" gradientUnits="userSpaceOnUse" x1="272.1211" y1="183.3351" x2="280.4823" y2="225.577">
		<stop  offset="0" style="stop-color:#F1F2F2"/>
		<stop  offset="0.1296" style="stop-color:#F1F2F2;stop-opacity:0.8704"/>
		<stop  offset="1" style="stop-color:#F1F2F2;stop-opacity:0"/>
	</linearGradient>
	<path class="st19" d="M295,173.4c0,0-13.2-2.4-17.8-1.8c-4.6,0.6-10.3,2.8-13.8,5.1c-3.4,2.2-17.7,5.8-16.9,7.6
		c0.7,1.8,7,2.4,10.2,0.7c3.1-1.6,10.2-3.4,11.7-1.5c1.5,1.9,1.5,17.1,3.7,20.5c2.2,3.4,13.6,14.2,15.6,12.3
		c1.9-1.9-1.9-12.7,1-17.7c3-4.9,6.1-6.9,5.1-10.5c-1-3.6-6.1-3.6-7.8-6.3c-1.6-2.7-4.2-4.5-6.7-4.5c-2.5,0-5.5-1-4.8-2.2
		c0.7-1.2,20.4,1,20.5,0C295.2,174.2,297.4,174.6,295,173.4z"/>
	<path class="st20" d="M295,173.4c0,0-13.2-2.4-17.8-1.8c-4.6,0.6-10.3,2.8-13.8,5.1c-3.4,2.2-17.7,5.8-16.9,7.6
		c0.7,1.8,7,2.4,10.2,0.7c3.1-1.6,10.2-3.4,11.7-1.5c1.5,1.9,1.5,17.1,3.7,20.5c2.2,3.4,13.6,14.2,15.6,12.3
		c1.9-1.9-1.9-12.7,1-17.7c3-4.9,6.1-6.9,5.1-10.5c-1-3.6-6.1-3.6-7.8-6.3c-1.6-2.7-4.2-4.5-6.7-4.5c-2.5,0-5.5-1-4.8-2.2
		c0.7-1.2,20.4,1,20.5,0C295.2,174.2,297.4,174.6,295,173.4z"/>
</g>
<path class="st8" d="M310.2,378.6c0,0,1.1,2.3-0.4,4.4c-1.5,2.2-3-0.3-3-0.3v-2.9L310.2,378.6z"/>
<path class="st9" d="M226.1,194.5c0,0,0.6,0.2,1.2,0.3c1-0.9,2-1.8,2.2-2.7c0,0,0,0,0,0c0,0,0-0.1,0-0.1c0,0,0,0,0,0c0,0,0,0,0,0
	c0.1-0.8,0.1-4.2,0.2-4.6c0-0.4-0.2-0.6-0.2-0.6h-1.6c-0.2,0.3-0.4,0.5-0.4,0.5l-2,1.2l-0.4,0.5l0.3,1.8c-0.5,0.3-1,0.6-1.4,0.9
	L226.1,194.5z"/>
<path class="st9" d="M241,196.7c-0.6,0.1-6.3,5.1-6.3,5.1s3.7,4.6,7.8,6.6c0-0.1,0-0.2,0-0.2s4,0.6,6-1.4c1.9-2.1,1.3-4.7,3.4-6.3
	c1.4-1.1,1.9,1.7,1.7,4.4c0.9-1.4,2.3-3.5,2.3-3.7c0-0.4,0-3.7,0-4.2c0-0.4-1.5-2.8-1.5-2.8h-5.3C249.1,194.1,241.5,196.6,241,196.7
	z"/>
<path class="st9" d="M250.8,212.5v-1.8c-0.3,0.1-0.7,0.3-1,0.4l-1.2-2.5l-1-0.5c0,0-0.5,3.6-0.2,4.5c0,0,0,0,0,0
	c0.1,0.9,1.4,2.5,2.8,4c-1-1.4-1.8-3.5-1.5-4C249.2,211.9,250.8,212.5,250.8,212.5z"/>
<path class="st9" d="M238,213.1l-1.3-2.2c0,0-1.2,0-1.4,0s-5.6,3.6-5.6,3.6s-1.3,4.7,1.1,4.1c2.3-0.6,0.6,3.2,0.5,3.4
	c1.4-1.7,2.4-3.5,3.2-4.5c0.5-0.7,1.9-0.5,3.3-0.1c-0.6-0.5-1.2-1.2-1.3-2.2C236.4,213.5,238,213.1,238,213.1z"/>
<path class="st9" d="M261.1,207.4c1.4-0.6,0.9,2.4,0.9,2.4c0.5-0.1,0.9-0.3,1.1-0.6c0,0,0.1-0.1,0.1-0.1c0,0,0,0,0-0.1c0,0,0,0,0,0
	c0,0,0,0,0,0c0.1-0.1,0.1-0.3,0.1-0.5c0.3-1.4,0.1-4,0.1-4l-3.1-1c-0.6-0.6-1-1.1-1.2-1.5c0,0,0-0.1,0-0.1c-0.6,0.8-2.7,4.1-2.7,4.2
	C256.6,206.1,259.6,207.9,261.1,207.4z"/>
<path class="st9" d="M260.3,253.8l1.4-1.3l1.6,0.3l-0.1,1.1c1.8-0.4,3.4-1.3,4.6-2.3c-0.2,0.1-3.4,1.5-3.8,0
	c-0.4-1.5,1.7-2.5,1.7-2.5s-4.1-3.4-8.6-1c-4.5,2.3-7,7.4-6.7,8c0.3,0.6,1.3,2.6,1.4,2.8l1.9-1.8c0,0,0,0,0.1-0.1
	c0.6-0.9,1.8-1.6,3.1-2.1c0.9-0.4,1.9-0.8,2.9-0.9c0.5,0,0.9-0.1,1.3-0.1L260.3,253.8z"/>
<path class="st9" d="M260.2,253.6c0,0,0.1,3.1,0,3.1c-0.1,0.1,0.3,2.9,0.4,2.9c0,0,0.1,0,0.2,0c0.2-0.7,0.8-1.3,1.3-1.8c0,0,0,0,0,0
	C261,258.1,260.2,253.6,260.2,253.6z"/>
<path class="st9" d="M262.7,265.2l-5.5-1c0,0-4.7-0.2-4.9-0.2c-0.2,0-3.7,4.9-3.7,4.9s1,5.6,1.6,7.3c0.5,1.7,1.1,1.9,1.1,1.9l0,0
	c0.5-2.2,2.1-5,3.9-6.4c1.9-1.4,3-0.1,3.6,1.2l0-4.9L262.7,265.2z"/>
<path class="st9" d="M219.9,226.9c-0.1,0-0.7,0.7-0.7,1.1c-0.1,0.4,1.8,3,2,3.6c0.1,0.3,1.4,0.4,2.7,0.3c0.2-1.2,0.8-2.5,1.6-3.8
	c-2.2-1-1.1-5.1-1.1-5.1S220,226.9,219.9,226.9z"/>
<path class="st9" d="M241.9,278.2l1.5,4.4l0.2,4.9c0.1-0.8,0.1-1.6,0.2-2.3c0.2-1.6,1.5-2.5,3.1-2.7v-4.8L241.9,278.2z"/>
<path class="st9" d="M241.1,289c-0.2-0.8-0.2-2.4-0.2-2.4c-0.8-1.9-4.4-0.7-4.4-0.7s0.4,4.3,0.4,4.5c0,0.1,1.4,1.4,2.1,1.9
	c0.2-0.7,0.6-1.3,0.6-1.3s0,0,2.1-0.1c0.5,0,0.8-0.2,1.1-0.5C241.7,290.5,241.3,289.8,241.1,289z"/>
<path class="st9" d="M234.5,309.3c-1-0.4,1-6.7,1-6.7l-5.4,5.1l-0.7,4.6l2.5,3.9c0,0,0.3-0.2,0.7-0.5c0-0.3-0.1-0.7-0.1-1
	c0-0.9,1.2-2.9,2.7-5.3C234.9,309.4,234.7,309.4,234.5,309.3z"/>
<path class="st9" d="M203.3,333.9c-0.3-4.1-0.1-9.8,1.9-12.6c0,0,0,0,0,0c-0.8,0.2-0.3-2.5-0.3-2.5l-2.9,1.2l-1.8,4.4
	c0,0,0.4,7,0.4,7.3C200.5,332.1,202.4,333.3,203.3,333.9z"/>
<path class="st9" d="M219.6,315.6c1.6-0.6,4.2,0.9,6.4,3c-0.3-0.5-0.4-1-0.4-1.5c0.2-1.3,3,0.8,3,0.8s-0.5-7.1-0.6-7.5
	c-0.2-0.4-4.6-2-4.6-2l-6.9,3.4l0.5,7.3C217.4,318,217.5,316.4,219.6,315.6z"/>
<path class="st9" d="M251.2,373.5c-0.4,1.4-1.3-0.3-2.6-1.3c-0.4-0.1-0.8-0.2-0.9-0.1c-1,0.6-1.3,3.2-1.3,3.2l0,2.8
	c0.1-0.2,0.3-0.5,0.6-0.9c1.2-1.6,1.8-0.4,4.7,1.6c1.7,1.2,2.3,3.9,2.2,7.5c1.3,0.3,2.6,0.1,2.6,0.1s-0.2-2.5,0-3.5
	c0.2-1-0.7-6.7-1-6.7C255.3,376.1,253.2,374.6,251.2,373.5z"/>
<path class="st9" d="M238.8,370.8l-2.1-0.1c0,0,2,1.2,2.4,3.2c0.4,1.7-1,1.4-1.4,1.2c1.8,0.7,3.3,0.7,4,1c1,0.3,1,1.6,1.7,2.2v-4.6
	l-1.2-1.9l-3.2-0.5C239.1,371.1,239,370.9,238.8,370.8z"/>
<path class="st9" d="M216.8,354.6l-1.9-3.7l-7.4,2c0,0,3.5,1.2,3.2,3c-0.1,0.8-0.7,1.1-1.4,1.2c1.2,0.3,2.2,0.4,2.7,0.4
	c2.3-0.1,2.5,0.8,3.9,2.1c0.1,0.1,0.2,0.2,0.3,0.2L216.8,354.6z"/>
<path class="st9" d="M273.5,413.4c0,0,3.4,2.8,0.5,3.4c2.2,0.9,4.5,1.5,6.8,2.8c3.7,2.2,7.3,5.8,7.9,8.5l0.5-2.2v-6.3l-5.4-6.2
	H273.5z"/>
<path class="st9" d="M228.9,359l-4.2-1.2v5.1c0.1,0,0.3,0,0.4,0c0.8,0,1.5,0.7,2.3,1.6c0.1-0.8,0.4-2.2,1.3-1.7
	c1.2,0.7,1.2-2.7,1.2-2.7L228.9,359z"/>
<path class="st9" d="M327.7,402.7l4,7l0.3-0.3c0-0.4,0.1-0.9,0.1-1.3c0.3-2.9,2.2-5.4,4.2-7.7c-0.9-0.7,0.2-6.9,0.2-6.9L327.7,402.7
	z"/>
<path class="st9" d="M318.4,416.2l-2,6.8l1.9,5.1c0.2-0.5,0.4-1.1,0.5-1.5c0.5-1.7,2.9-3.3,6.3-5.5c-0.5-1.2,0.8-4.9,0.8-4.9H318.4z
	"/>
<path class="st9" d="M310.1,428.9c4.2-5.3-11.1,3.9-11.1,3.9l-0.3,4c0,0,0.1,0.1,0.1,0.1c1.1,0,2.1-0.1,3.2-0.1
	c2.6-0.2,4.7-0.7,6.4-1.2C307.7,434.8,306.9,432.9,310.1,428.9z"/>
<path class="st10" d="M253.4,214.5c0.1,1,0.1,3.9,0.2,5.5c1.8,1.3,4.4-0.1,5.1-1.3l-0.2-5.4C258.4,213.3,253.3,213.1,253.4,214.5z"
	/>
<path class="st10" d="M240.5,211.8c0,0,0.5,4.3,0.3,6.6c0.6,0.1,1.1,0.2,1.5,0.1c0,0,0,0,0,0c0,0,0.1,0,0.1,0c0,0,0.1,0,0.1,0
	c0,0,0.1,0,0.1-0.1c0.1,0,0.1-0.1,0.2-0.1c0.1-0.1,0.2-0.3,0.3-0.5c0.7-1.5,0.3-4.9,0.3-4.9l-0.3-0.1c-0.1-0.7-0.2-1.3-0.3-1.9
	c-1.1-0.4-2.5-0.9-2.5-0.9L240.5,211.8z"/>
<path class="st10" d="M263.1,252.6l-1.4,0.6l-1-1c0,0,1.2,1.7,1.4,3c0.1,0.9,0.2,1.9,0.2,2.4c0.4-0.3,0.7-0.6,0.7-0.8l0.1-2.9
	c0.1,0,0.1-1.1,0.1-1.1L263.1,252.6z"/>
<path class="st10" d="M275.6,248.3c0.4-0.2,0.6-0.4,0.8-0.6l0,0c0.8-0.6,0.3-4.2,0.3-4.2l-2.5-1.1l-1.5,0.3c0,0,2.1,4.2,1.4,6.1
	C274.6,248.6,275.1,248.5,275.6,248.3z"/>
<path class="st10" d="M267,260.5c-0.1,0-0.1,0.1-0.2,0.2c0.1,2,0.3,4.7,0.2,6.4c0,0.9-0.3,1.6-0.7,2.2c1.4-1.5,2.2-2.6,2.5-3.6
	c0,0,0,0,0,0c0-0.1,0-0.1,0.1-0.2c0,0,0-0.1,0-0.1c0.5-1.9,0.3-5.3,0.3-5.3l-0.1-0.2l-1.2-0.4l-0.7,0.7L267,260.5z"/>
<path class="st10" d="M260.7,273.3c-0.5-0.4-0.9-0.9-0.9-1.5c0-1.4,1.7-5,1.7-5l-3,1.2l0,4.7l0,0c0.1,0.2,0.1,0.3,0.2,0.5
	C259,273.7,259.7,273.7,260.7,273.3z"/>
<path class="st10" d="M250.9,280.6l-0.1-3.2l-2.7-1v5.9c0.1,0,0.1,0,0.2,0C249.7,282.5,250.5,281.9,250.9,280.6z"/>
<path class="st10" d="M241.1,299c0.7-1.9,0.2-5.9,0.2-5.9l-1.4,0.7c-0.4,2.2-1.4,6.8-1.4,6.8s0.8,1.7-1.1,5.3
	C239.1,303.3,240.7,300.7,241.1,299C241.1,299.1,241.1,299,241.1,299z"/>
<path class="st10" d="M231.7,327.9c1.4,1.7,3.3,2.5,4.2,2.1c0,0,0,0,0,0c0,0,0,0,0,0c0.2-0.1,0.3-0.2,0.4-0.4c0-0.1,0.1-0.1,0.1-0.2
	c0.6-1.2,0.3-3.7,0.3-3.7l-1.3-1.4c-0.3-0.9-0.7-1.7-1-2.4h-2.8C231.7,321.9,232.9,327.3,231.7,327.9z"/>
<path class="st10" d="M210.2,319.3c2.7,0,5.4,1.1,6.2,0.8c0.3-0.1,0.5-0.5,0.6-0.9l-0.4-4.9l-4.3-0.5l-4.1,0.9
	C208.3,314.6,210.4,317,210.2,319.3z"/>
<path class="st10" d="M243.7,372l-0.1,6.3c0.2,0.2,0.6,0.3,1,0.2c1.3-0.1,1.3,0,1.7-0.5v-2.8l-2-2.6c-0.2,0.1-0.4,0.2-0.6,0.3V372z"
	/>
<path class="st10" d="M199.4,348.2c3.4,0.3-8-19.2-8-19.2l-6.2,0.5v6.7c0.5,0.5,0.7,0.8,0.7,0.8s2.4,4.3,3.8,5.9
	c1.4,1.6,2.8,2.2,6.2,7.1c0.4,0.5,0.8,1.1,1.4,1.5C197.1,350,197.3,348,199.4,348.2z"/>
<path class="st10" d="M262.3,397.7l-1-4.2c0,0-2.6-2.9-6.6-2c-0.5,0.1-1,0.3-1.4,0.7c-0.1,0.7-0.2,1.5-0.3,2.3
	c-0.7,4.5,4.1,9.8,8.9,13.9C260.1,403.5,262.3,397.7,262.3,397.7z"/>
<path class="st11" d="M339.6,388.6c-0.1-1.6-4.5-4.2-4.5-4.2h-13.6c0,0-0.9-1.5-2.7-1.6c-1.8-0.1-4.3,0.9-5.1,1.6
	c-0.7,0.7-4.9,1.6-4.9,1.6s0.3-2.2,0.3-3.6c0-1.3,1.2-1.6,1.2-3s-3.9-5.9-5.8-7c-1.9-1-11.2,0-11.2,0s-0.3-2.2-1.8-3.4
	c-1.5-1.2-6.1-2.1-6.6-3.9c-0.4-1.8-3.1-3.4-4.9-3.3c-1.8,0.1-2.4-0.9-4.1-0.9c-1.7,0-4.1,2.4-5.7,3.1c-1.6,0.7-2.8-1.1-4.1-2.8
	c-1.3-1.7-2.2-2.8-2.8-2.5c-0.6,0.3-0.9,4.6-0.9,6.1c0,1.5-1,0.7-1.3,0.7c-0.3,0.1,0-4.7-0.6-6.2c-0.6-1.5-5.8,4.3-7.8,5
	c-1.9,0.7-0.7,4-1.2,5.8c-0.4,1.8-1.8-1.2-3.4-1.8c-1.6-0.6-3.6,1.6-5.5,1.8c-1.9,0.1-5.2-5.6-6.1-5.9c-0.9-0.3-0.7-6.4-0.9-9.2
	c-0.2-2.8-3-1.6-7.3-1.5c-4.3,0.1-3.4-13.1-4-15c-0.6-1.9-6.7-1.5-6.9,1.6c-0.2,3.1-1.8,5.6-3.6,5.8c-1.8,0.1-9.4-9.5-9.9-14.4
	c-0.4-4.9-0.4-13.3,3.1-15.3c3.6-1.9,8.7,0.4,9.9,0c1.2-0.4,0.2-3.4,3.1-4.4c3-1,9.3,4.7,10.5,9.2c1.2,4.4,5.4,6.4,6.3,4.9
	c0.9-1.5-1.3-6.5-2.2-8.6c-0.9-2-1.6-4-1.6-6.6c0-2.5,8.4-12.8,8.7-16.2c0.3-3.4-1-3.9-1.9-4.9c-0.9-1,0.3-2.8,0.3-2.8s0,0,2.1-0.1
	c2.1-0.1,1.9-3.6,2.2-5.6c0.3-2.1,2.2-3,4.3-2.8c2.1,0.1,2.8-1,2.8-3.4c0-2.4,1.9-5.9,4-7.6c2.1-1.6,3.3,0.3,3.7,1.6
	c0.5,1.3,3.9-0.3,7.3-3.7c3.4-3.4,3.1-4.9,2.5-7.6c-0.6-2.7-2.4-1.5-2.4-0.3c0,1.2-1.9,2.7-3.4,2.7c-1.5,0-2.5-2.7-2.1-4.7
	c0.3-1.3,2-2.2,2.2-2.8l0,0c0,0,0,0,0,0c0,0,0,0,0,0c0.1-0.3-0.1-0.7-0.1-0.7l-0.3,0.3c-0.3-0.1-0.8-0.1-1.6-0.2
	c-4.5-0.1-7.5,6.1-7.5,6.1s0-0.9-0.3-3.6c-0.3-2.7,4.2-4.7,8.1-4.7c3.9,0.1,7.2-2.7,8.1-4.4c0.9-1.6,3.1-0.1,6.3-1.5
	c3.1-1.3-2.7-5.6-3.3-8.3c-0.6-2.7-5.4-2.8-7.6-5.3c-2.2-2.5-1-7.6-2.5-8.6c-1.5-1-3,0.7-3.1,1.8c-0.2,1-5.1,0.9-6-0.3
	c-0.9-1.2,0.7-4.9-1.3-6.6c-2.1-1.7-7-1.7-8.5,0c-1.5,1.7-0.9,17.3-3,17.9c-2.1,0.6-2.1,3.7-2.1,8.2c0,4.4-1.8,5-3.3,4.3
	c-1.5-0.7-0.3-6.5-1.6-11c-1.3-4.4-7.3-4.2-8.8-5.9c-1.5-1.8,0.7-6.8,3.7-9c3-2.2,5.2-6.1,6.4-7.9c1.2-1.8,7.2,1.9,8.5,0.6
	c1.3-1.3-0.4-10.1-0.4-10.1s4,0.6,6-1.4c1.9-2.1,1.3-4.7,3.4-6.4c2.1-1.6,2.1,5.2,1.2,7.8c-0.9,2.6-3.3,2.7-5.2,3.6
	c-1.9,0.9,3.1,5.3,5.1,7.7c1.9,2.4,5.8,0.1,5.8-1.4c0-1.5,3.3-4.9,3-5.9c-0.3-1-3.1-0.9-3.3-1.9c-0.1-1,5.1,0.6,4.9-2.1
	c-0.1-2.7-3.6-5-4.2-6.4c-0.6-1.4,1-5.4,0-7.6c-1-2.2-9.1-1.4-11.5-1.4c-2.4,0-4.5-1.8-5.8-2.7c-1.3-0.9-11.8,8.5-12.4,8.7
	c-0.6,0.3-2.6-0.6-3.9-1.6c-1.3-1,3.6-3.5,3.9-5.5c0.2-1.3-1.4-1.9-2.6-2.2c-14.7,8.7-27.6,20.1-38.1,33.6c0.1,0.2,0.2,0.5,0.3,0.6
	c0.6,0.8,4.4-4.9,6-6.1c1.6-1.2,1,3-4.6,12.3c-5.6,9.3-16.8,35.8-19,46.7c-2.2,10.9,1,17.4,1,17.4s0.8,14.2,3.4,25.1
	c2.6,10.9,10,19,10,19s2.4,4.4,3.8,5.9c1.4,1.6,2.8,2.2,6.2,7.1c3.4,4.9,13.9,7.6,16.2,7.5c2.3-0.1,2.5,0.8,3.9,2.1
	c1.4,1.3,6.6,3.5,9.1,3.6c2.5,0.1,4.6,6.3,8.4,9.6c3.8,3.3,7.1,3.2,8.4,3.6c1.3,0.4,0.9,2.7,2.8,2.5c1.9-0.2,1.1,0.2,2.3-1.4
	c1.2-1.6,1.8-0.4,4.7,1.6c2.8,2.1,2.5,8,1.3,15.9c-1.2,7.9,13.9,17.8,17.1,20.3c3.1,2.5,7,2.8,10.8,5c3.7,2.2,7.3,5.9,7.9,8.6
	c0.6,2.6,9.5,8.4,10,8.8c1.1,0,2.1-0.1,3.2-0.1c6.4-0.5,9.8-2.6,12.3-3.8c2.8-1.3,4-4.4,4.6-6.5c0.6-2.1,4-4,8.5-7
	c4.5-3,4.2-7.7,4.6-11.6c0.5-3.9,3.6-7,6-9.9C340.5,392.4,339.8,390.2,339.6,388.6z"/>
<path class="st12" d="M335.2,384h-13.6c0,0-0.9-1.5-2.7-1.6c-1.8-0.1-4.3,0.9-5.1,1.6c-0.7,0.7-4.9,1.6-4.9,1.6s0.3-2.2,0.3-3.6
	c0-1.3,1.2-1.6,1.2-3c0-1.3-3.9-5.9-5.8-7c-1.9-1-11.2,0-11.2,0s-0.3-2.2-1.8-3.4c-1.5-1.2-6.1-2.1-6.6-3.9
	c-0.4-1.8-3.1-3.4-4.9-3.3c-1.8,0.1-2.4-0.9-4.1-0.9c-1.7,0-4.1,2.4-5.7,3.1c-1.6,0.7-2.8-1.1-4.1-2.8c-1.4-1.7-2.2-2.8-2.8-2.5
	c-0.6,0.3-0.9,4.6-0.9,6.1c0,1.5-1,0.7-1.3,0.7c-0.3,0.1,0-4.7-0.6-6.2c-0.6-1.5-5.8,4.3-7.8,5c-1.9,0.7-0.7,4-1.2,5.8
	c-0.4,1.8-1.8-1.2-3.4-1.8c-1.6-0.6-3.6,1.6-5.5,1.8c-1.9,0.1-5.2-5.6-6.1-5.9c-0.9-0.3-0.7-6.4-0.9-9.2c-0.2-2.8-3-1.6-7.3-1.5
	c-4.3,0.1-3.4-13-4-15c-0.6-1.9-6.7-1.5-6.9,1.6c-0.2,3.1-1.8,5.6-3.6,5.8c-1.8,0.1-9.4-9.5-9.9-14.4c-0.4-4.9-0.4-13.3,3.1-15.3
	c3.6-1.9,8.7,0.4,9.9,0c1.2-0.4,0.2-3.4,3.1-4.4c3-1,9.3,4.7,10.5,9.2c1.2,4.4,5.4,6.4,6.3,4.9c0.9-1.5-1.3-6.5-2.2-8.6
	c-0.9-2-1.6-4-1.6-6.6c0-2.5,8.4-12.8,8.7-16.2c0.3-3.4-1.1-3.9-1.9-4.9c-0.9-1,0.3-2.8,0.3-2.8s0,0,2.1-0.1
	c2.1-0.1,1.9-3.6,2.2-5.6c0.3-2.1,2.2-3,4.3-2.8c2.1,0.1,2.8-1,2.8-3.4c0-2.4,1.9-5.9,4-7.6c2.1-1.6,3.3,0.3,3.7,1.6
	c0.5,1.3,3.9-0.3,7.3-3.7c3.4-3.4,3.1-4.9,2.5-7.6c-0.6-2.7-2.4-1.5-2.4-0.3c0,1.2-1.9,2.7-3.4,2.7c-1.5,0-2.5-2.7-2.1-4.7
	c0.4-2.1,4.6-3.3,0.1-3.4c-4.5-0.1-7.5,6.1-7.5,6.1s0-0.9-0.3-3.6c-0.3-2.7,4.2-4.7,8.1-4.7c3.9,0.1,7.2-2.7,8.1-4.4
	c0.9-1.6,3.1-0.1,6.3-1.5c3.1-1.3-2.7-5.6-3.3-8.3c-0.6-2.7-5.4-2.8-7.6-5.3c-2.2-2.5-1-7.6-2.5-8.6c-1.5-1-3,0.7-3.1,1.8
	c-0.2,1-5.1,0.9-6-0.3c-0.9-1.2,0.8-4.9-1.3-6.6c-2.1-1.7-7-1.7-8.5,0c-1.5,1.7-0.9,17.3-3,17.9c-2.1,0.6-2.1,3.7-2.1,8.2
	s-1.8,5-3.3,4.3c-1.5-0.7-0.3-6.5-1.6-11c-1.3-4.4-7.3-4.2-8.8-5.9c-1.5-1.8,0.7-6.8,3.7-9c3-2.2,5.2-6.1,6.4-7.9
	c1.2-1.8,7.2,1.9,8.5,0.6c1.3-1.3-0.4-10.1-0.4-10.1s4,0.6,6-1.4c1.9-2.1,1.3-4.7,3.4-6.4c2.1-1.6,2.1,5.2,1.2,7.8
	c-0.9,2.6-3.3,2.7-5.2,3.6c-1.9,0.9,3.1,5.3,5.1,7.7c1.9,2.4,5.8,0.1,5.8-1.4s3.3-4.9,3-5.9c-0.3-1-3.1-0.9-3.3-1.9
	c-0.1-1,5.1,0.6,4.9-2.1c-0.1-2.7-3.6-5-4.2-6.4c-0.6-1.4,1-5.4,0-7.6c-1-2.2-9.1-1.4-11.5-1.4c-2.4,0-4.5-1.8-5.8-2.7
	c-1.3-0.9-11.8,8.5-12.4,8.7c-0.6,0.3-2.6-0.6-3.9-1.6c-1.3-1,3.6-3.5,3.9-5.5c0.2-1.3-1.4-1.9-2.6-2.2
	c-14.7,8.7-27.6,20.1-38.1,33.6c0.1,0.2,0.2,0.5,0.3,0.6c0.6,0.8,4.4-4.9,6-6.1c1.6-1.2,1,3-4.6,12.3c-5.6,9.3-16.8,35.8-19,46.7
	c-2.2,10.9,1,17.4,1,17.4s0.8,14.2,3.4,25.1c2.6,10.9,10,19,10,19s2.4,4.3,3.8,5.9c1.4,1.6,2.8,2.2,6.2,7.1
	c3.4,4.9,13.9,7.6,16.2,7.5c2.3-0.1,2.5,0.8,3.9,2.1c1.4,1.3,6.6,3.5,9.1,3.6c2.5,0.1,4.6,6.3,8.4,9.6c3.8,3.3,7.1,3.2,8.4,3.6
	c1.3,0.4,0.9,2.7,2.8,2.5c1.9-0.2,1.1,0.2,2.3-1.4c1.2-1.6,1.8-0.4,4.7,1.6c2.8,2.1,2.5,8,1.3,15.9c-1.2,7.9,13.9,17.8,17.1,20.3
	c3.1,2.5,7,2.8,10.8,5c3.7,2.2,7.3,5.9,7.9,8.6c0.6,2.6,9.5,8.4,10,8.8c1.1,0,2.1-0.1,3.2-0.1c6.4-0.5,9.8-2.6,12.3-3.8
	c2.8-1.3,4-4.4,4.6-6.5c0.6-2.1,4-4,8.5-7c4.5-3,4.2-7.7,4.6-11.6c0.5-3.9,3.6-7,6-9.9c2.4-3,1.6-5.2,1.5-6.8
	C339.5,386.5,335.2,384,335.2,384z"/>
<linearGradient id="SVGID_11_" gradientUnits="userSpaceOnUse" x1="275.8308" y1="291.6423" x2="211.5908" y2="388.0036">
	<stop  offset="0" style="stop-color:#F1F2F2"/>
	<stop  offset="0.1296" style="stop-color:#F1F2F2;stop-opacity:0.8704"/>
	<stop  offset="1" style="stop-color:#F1F2F2;stop-opacity:0"/>
</linearGradient>
<path class="st21" d="M335.2,384h-13.6c0,0-0.9-1.5-2.7-1.6c-1.8-0.1-4.3,0.9-5.1,1.6c-0.7,0.7-4.9,1.6-4.9,1.6s0.3-2.2,0.3-3.6
	c0-1.3,1.2-1.6,1.2-3c0-1.3-3.9-5.9-5.8-7c-1.9-1-11.2,0-11.2,0s-0.3-2.2-1.8-3.4c-1.5-1.2-6.1-2.1-6.6-3.9
	c-0.4-1.8-3.1-3.4-4.9-3.3c-1.8,0.1-2.4-0.9-4.1-0.9c-1.7,0-4.1,2.4-5.7,3.1c-1.6,0.7-2.8-1.1-4.1-2.8c-1.4-1.7-2.2-2.8-2.8-2.5
	c-0.6,0.3-0.9,4.6-0.9,6.1c0,1.5-1,0.7-1.3,0.7c-0.3,0.1,0-4.7-0.6-6.2c-0.6-1.5-5.8,4.3-7.8,5c-1.9,0.7-0.7,4-1.2,5.8
	c-0.4,1.8-1.8-1.2-3.4-1.8c-1.6-0.6-3.6,1.6-5.5,1.8c-1.9,0.1-5.2-5.6-6.1-5.9c-0.9-0.3-0.7-6.4-0.9-9.2c-0.2-2.8-3-1.6-7.3-1.5
	c-4.3,0.1-3.4-13-4-15c-0.6-1.9-6.7-1.5-6.9,1.6c-0.2,3.1-1.8,5.6-3.6,5.8c-1.8,0.1-9.4-9.5-9.9-14.4c-0.4-4.9-0.4-13.3,3.1-15.3
	c3.6-1.9,8.7,0.4,9.9,0c1.2-0.4,0.2-3.4,3.1-4.4c3-1,9.3,4.7,10.5,9.2c1.2,4.4,5.4,6.4,6.3,4.9c0.9-1.5-1.3-6.5-2.2-8.6
	c-0.9-2-1.6-4-1.6-6.6c0-2.5,8.4-12.8,8.7-16.2c0.3-3.4-1.1-3.9-1.9-4.9c-0.9-1,0.3-2.8,0.3-2.8s0,0,2.1-0.1
	c2.1-0.1,1.9-3.6,2.2-5.6c0.3-2.1,2.2-3,4.3-2.8c2.1,0.1,2.8-1,2.8-3.4c0-2.4,1.9-5.9,4-7.6c2.1-1.6,3.3,0.3,3.7,1.6
	c0.5,1.3,3.9-0.3,7.3-3.7c3.4-3.4,3.1-4.9,2.5-7.6c-0.6-2.7-2.4-1.5-2.4-0.3c0,1.2-1.9,2.7-3.4,2.7c-1.5,0-2.5-2.7-2.1-4.7
	c0.4-2.1,4.6-3.3,0.1-3.4c-4.5-0.1-7.5,6.1-7.5,6.1s0-0.9-0.3-3.6c-0.3-2.7,4.2-4.7,8.1-4.7c3.9,0.1,7.2-2.7,8.1-4.4
	c0.9-1.6,3.1-0.1,6.3-1.5c3.1-1.3-2.7-5.6-3.3-8.3c-0.6-2.7-5.4-2.8-7.6-5.3c-2.2-2.5-1-7.6-2.5-8.6c-1.5-1-3,0.7-3.1,1.8
	c-0.2,1-5.1,0.9-6-0.3c-0.9-1.2,0.8-4.9-1.3-6.6c-2.1-1.7-7-1.7-8.5,0c-1.5,1.7-0.9,17.3-3,17.9c-2.1,0.6-2.1,3.7-2.1,8.2
	s-1.8,5-3.3,4.3c-1.5-0.7-0.3-6.5-1.6-11c-1.3-4.4-7.3-4.2-8.8-5.9c-1.5-1.8,0.7-6.8,3.7-9c3-2.2,5.2-6.1,6.4-7.9
	c1.2-1.8,7.2,1.9,8.5,0.6c1.3-1.3-0.4-10.1-0.4-10.1s4,0.6,6-1.4c1.9-2.1,1.3-4.7,3.4-6.4c2.1-1.6,2.1,5.2,1.2,7.8
	c-0.9,2.6-3.3,2.7-5.2,3.6c-1.9,0.9,3.1,5.3,5.1,7.7c1.9,2.4,5.8,0.1,5.8-1.4s3.3-4.9,3-5.9c-0.3-1-3.1-0.9-3.3-1.9
	c-0.1-1,5.1,0.6,4.9-2.1c-0.1-2.7-3.6-5-4.2-6.4c-0.6-1.4,1-5.4,0-7.6c-1-2.2-9.1-1.4-11.5-1.4c-2.4,0-4.5-1.8-5.8-2.7
	c-1.3-0.9-11.8,8.5-12.4,8.7c-0.6,0.3-2.6-0.6-3.9-1.6c-1.3-1,3.6-3.5,3.9-5.5c0.2-1.3-1.4-1.9-2.6-2.2
	c-14.7,8.7-27.6,20.1-38.1,33.6c0.1,0.2,0.2,0.5,0.3,0.6c0.6,0.8,4.4-4.9,6-6.1c1.6-1.2,1,3-4.6,12.3c-5.6,9.3-16.8,35.8-19,46.7
	c-2.2,10.9,1,17.4,1,17.4s0.8,14.2,3.4,25.1c2.6,10.9,10,19,10,19s2.4,4.3,3.8,5.9c1.4,1.6,2.8,2.2,6.2,7.1
	c3.4,4.9,13.9,7.6,16.2,7.5c2.3-0.1,2.5,0.8,3.9,2.1c1.4,1.3,6.6,3.5,9.1,3.6c2.5,0.1,4.6,6.3,8.4,9.6c3.8,3.3,7.1,3.2,8.4,3.6
	c1.3,0.4,0.9,2.7,2.8,2.5c1.9-0.2,1.1,0.2,2.3-1.4c1.2-1.6,1.8-0.4,4.7,1.6c2.8,2.1,2.5,8,1.3,15.9c-1.2,7.9,13.9,17.8,17.1,20.3
	c3.1,2.5,7,2.8,10.8,5c3.7,2.2,7.3,5.9,7.9,8.6c0.6,2.6,9.5,8.4,10,8.8c1.1,0,2.1-0.1,3.2-0.1c6.4-0.5,9.8-2.6,12.3-3.8
	c2.8-1.3,4-4.4,4.6-6.5c0.6-2.1,4-4,8.5-7c4.5-3,4.2-7.7,4.6-11.6c0.5-3.9,3.6-7,6-9.9c2.4-3,1.6-5.2,1.5-6.8
	C339.5,386.5,335.2,384,335.2,384z"/>
<path class="st7" d="M264.3,348.4l0-0.1l0,0l-0.3-3.9l-14.3-4.1l-12-4.6h-7.4l-4.1,0.5c0,0-0.6,4,0.5,5l0,0c1,1.1,4.7-0.2,6.7-0.7
	c2.4-0.6,9.7,5.1,9.9,6.1c0.2,0.9,5.5,0.7,7.8,0.9l0.1,2.5c0,1.2,3.7,1.3,6.3,1.2c2.5-0.1,3.7-1.6,6.1-2.4
	C264.1,348.7,264.2,348.6,264.3,348.4C264.3,348.4,264.3,348.4,264.3,348.4z"/>
<path class="st8" d="M264.3,348l0-0.1l0,0L264,344l-14.3-4.1l-12-4.6h-7.4l-4.1,0.5c0,0-0.6,4,0.5,5l0,0c1,1.1,4.7-0.2,6.7-0.7
	c2.4-0.6,9.7,5.1,9.9,6.1c0.2,0.9,5.5,0.7,7.8,0.9l0.1,2.5c0,1.2,3.7,1.3,6.3,1.2c2.5-0.1,3.7-1.6,6.1-2.4
	C264.1,348.3,264.2,348.2,264.3,348C264.3,348,264.3,348,264.3,348z"/>
<path class="st10" d="M230.4,335.2l-4.1,0.5c0,0-0.6,4,0.5,5l0,0c0.5,0.6,1.8,0.5,3.2,0.2c-0.1-0.1-0.1-0.1-0.2-0.2
	C228.7,339.6,229.8,336.6,230.4,335.2L230.4,335.2z"/>
<path class="st9" d="M238,336.6l-4.9-1.3l0.3,4.8c0,0,0,0,0,0c2-0.5,7.7,3.5,9.4,5.4c0-0.8,0-2.2,0.3-2.9c0.4-1,0-3.7,0-3.7
	L238,336.6z"/>
<path class="st9" d="M254.1,343.9v-0.9l-2.8-1.9l-4,0.3c0,0,2.3,3.9,1.3,5.5c1,0,1.9,0.1,2.6,0.1L251,346L254.1,343.9z"/>
<path class="st10" d="M253.3,344.7l-2.2,1.5l0.1,0.9c0,0,0,0,0,0l0.1,2.5c0,0.8,1.7,1.1,3.7,1.2c-0.8-0.7,0-5.4,0-5.4L253.3,344.7z"
	/>
<path class="st7" d="M247.2,345.4c-0.4-1.5-2.6,1.9-2.6,1.9l-1.1-1.2l-2,0v2.6c0.1,0.7,0.3,2.8,1.6,3.1c1.3,0.3,3.4,0,3.4,0
	s0.7-1.7,0.7-3h0C247.2,348.7,247.6,347,247.2,345.4z"/>
<path class="st7" d="M243.1,331.2c-0.2-0.8-1.7-1.2-1.7-1.2l-0.9-1.7l-2.7-0.5v2.4c0,0,3.1,4.3,4.7,4.3c0.4,0,0.6-0.2,0.7-0.6l0,0
	C243.1,333.9,243.2,332,243.1,331.2z"/>
<path class="st9" d="M262.9,344.4c0-0.3,0-0.6,0-0.8l-2-0.6c-1.1,0.9-2.2,2.4-2.2,2.4l0.3,5.2c1.5-0.4,2.7-1.3,4.3-2
	C263,347.6,262.8,346.2,262.9,344.4z"/>
<path class="st8" d="M243.1,331c-0.2-0.8-1.7-1.2-1.7-1.2l-0.9-1.7l-2.7-0.5v2.4c0,0,3.1,4.3,4.7,4.3c0.4,0,0.6-0.2,0.7-0.6l0,0
	C243.1,333.7,243.2,331.8,243.1,331z"/>
<path class="st8" d="M247.2,345.2c-0.4-1.5-2.6,1.9-2.6,1.9l-1.1-1.2l-2,0v2.6c0.1,0.7,0.3,2.8,1.6,3.1c1.3,0.3,3.4,0,3.4,0
	s0.7-1.7,0.7-3l0,0C247.2,348.5,247.6,346.7,247.2,345.2z"/>
<path class="st11" d="M226.3,336c0,0,5.7-5.4,9.1-3.9c3.4,1.5,11.7,6.6,14.7,7.3c3,0.7,7.8,0.6,8.8,1.5c1,0.9,6.9,3.1,4.5,3.9
	c-2.4,0.7-3.6,2.2-6.1,2.4c-2.5,0.2-6.3,0-6.3-1.2c0-1.2,1.9-1.9,0.7-2.4c-1.2-0.5-8.4,0-8.6-1c-0.2-1-7.6-6.7-9.9-6.1
	C230.8,337.1,225.7,338.8,226.3,336z"/>
<path class="st22" d="M348.6,176.1c-2.1,0.5-3.7,1.2-3.4,2c0.8,2.1,13.4,8.2,12.5,10.7c-0.9,2.5,14.2,7.8,15.8,10.3
	s9.4,2.5,10.9,5.3c1.6,2.8,10.8,13,16.5,11.1c0.1,0,0.2-0.1,0.3-0.1C387.3,198.4,369.2,184.8,348.6,176.1z"/>
<path class="st9" d="M247.2,348.5L247.2,348.5c0,0,0.4-1.8,0-3.3c-0.1-0.2-0.2-0.3-0.3-0.4l-1.1,1.6l0.5,1.3l0.1,3.9l0,0
	C246.5,351.5,247.2,349.8,247.2,348.5z"/>
<path class="st10" d="M241.9,346c0,0-0.2-0.1-0.3-0.1v2.6c0.1,0.7,0.3,2.5,1.3,3c-0.2-1.4,0-3.6,0-3.6S242,346,241.9,346z"/>
<path class="st7" d="M242.6,325.6c0.1-0.5,0.1-1.3-0.2-2c-0.3-0.7-1.7-0.6-2.5-0.5c-0.9-0.4-1.7-0.6-1.7-0.6c0,0,0,0.1,0,0.1
	l-0.5-0.3c0,0-0.2,1.8,0.3,2.6c0,0,0,0,0,0c0.6,2,3.1,3.3,4.3,1.5c0.1-0.2,0.2-0.4,0.2-0.5l0,0C242.6,325.9,242.6,325.8,242.6,325.6
	C242.6,325.6,242.6,325.6,242.6,325.6z"/>
<path class="st10" d="M242.3,330.1l-1.4,0.1c0,0,0.2,2.2,0.1,3.3c0.5,0.4,1.1,0.7,1.5,0.7c0.4,0,0.6-0.2,0.7-0.6l0,0
	c0,0,0.1-1.9-0.1-2.7C243,330.6,242.7,330.3,242.3,330.1z"/>
<path class="st22" d="M214.1,251.1c8.2-10.8,1.2-21.6,2.7-26.3c1.5-4.7,0.5-12-4.1-11.6c-4.6,0.4-1.7-8.6,0.3-14
	c1.4-3.8-3.5-1.3-6.6,0.6c-6.4,5.6-12.3,11.9-17.5,18.6c0.1,0.2,0.2,0.5,0.3,0.6c0.6,0.8,4.4-4.9,6-6.1c1.6-1.2,1,3-4.6,12.3
	c-5.6,9.3-16.8,35.8-19,46.7c-2.2,10.9,1,17.4,1,17.4s0.4,7.1,1.5,15.1c1-14.4,15.7-25.1,18.1-30.6
	C195.1,267.4,206,261.8,214.1,251.1z"/>
<path class="st8" d="M242.6,325.3c0.1-0.5,0.1-1.3-0.2-2c-0.3-0.7-1.7-0.6-2.5-0.5c-0.9-0.4-1.7-0.6-1.7-0.6c0,0,0,0.1,0,0.1
	l-0.5-0.3c0,0-0.2,1.8,0.3,2.6c0,0,0,0,0,0c0.6,2,3.1,3.3,4.3,1.5c0.1-0.2,0.2-0.4,0.2-0.5l0,0C242.6,325.7,242.6,325.6,242.6,325.3
	C242.6,325.4,242.6,325.4,242.6,325.3z"/>
<path class="st9" d="M237.8,329.9c0,0,0.6,0.9,1.4,1.8l0.2-2.9l-0.4-1.1l-1.2-0.2V329.9z"/>
<path class="st11" d="M246.5,349.2c0,0,1.6-4.3,0-4.5c-1.6-0.1-5.1,0.6-4.9,1.3c0.1,0.7,0.3,2.8,1.6,3.1
	C244.4,349.5,246.5,349.2,246.5,349.2z"/>
<path class="st11" d="M241.3,327.8c-0.9-0.8-2.6-0.3-3.3-0.1l-0.3-0.2v0.2c0,0,3.1,4.3,4.7,4.3C244.1,332.1,242.3,328.8,241.3,327.8
	z"/>
<path class="st12" d="M226.3,335.7c0,0,5.7-5.4,9.1-3.9c3.4,1.5,11.7,6.6,14.7,7.3c3,0.7,7.8,0.6,8.8,1.5c1,0.9,6.9,3.1,4.5,3.9
	c-2.4,0.7-3.6,2.2-6.1,2.4c-2.5,0.1-6.3,0-6.3-1.2c0-1.2,1.9-1.9,0.7-2.4c-1.2-0.5-8.4,0-8.6-1s-7.6-6.7-9.9-6.1
	C230.8,336.8,225.7,338.6,226.3,335.7z"/>
<linearGradient id="SVGID_12_" gradientUnits="userSpaceOnUse" x1="241.1993" y1="336.8765" x2="253.3399" y2="347.2549">
	<stop  offset="0" style="stop-color:#F1F2F2"/>
	<stop  offset="0.1296" style="stop-color:#F1F2F2;stop-opacity:0.8704"/>
	<stop  offset="1" style="stop-color:#F1F2F2;stop-opacity:0"/>
</linearGradient>
<path class="st23" d="M226.3,335.7c0,0,5.7-5.4,9.1-3.9c3.4,1.5,11.7,6.6,14.7,7.3c3,0.7,7.8,0.6,8.8,1.5c1,0.9,6.9,3.1,4.5,3.9
	c-2.4,0.7-3.6,2.2-6.1,2.4c-2.5,0.1-6.3,0-6.3-1.2c0-1.2,1.9-1.9,0.7-2.4c-1.2-0.5-8.4,0-8.6-1s-7.6-6.7-9.9-6.1
	C230.8,336.8,225.7,338.6,226.3,335.7z"/>
<path class="st12" d="M246.5,348.9c0,0,1.6-4.3,0-4.5c-1.6-0.1-5.1,0.6-4.9,1.3c0.1,0.7,0.3,2.8,1.6,3.1
	C244.4,349.2,246.5,348.9,246.5,348.9z"/>
<linearGradient id="SVGID_13_" gradientUnits="userSpaceOnUse" x1="241.575" y1="346.7266" x2="247.2524" y2="346.7266">
	<stop  offset="0" style="stop-color:#F1F2F2"/>
	<stop  offset="0.1296" style="stop-color:#F1F2F2;stop-opacity:0.8704"/>
	<stop  offset="1" style="stop-color:#F1F2F2;stop-opacity:0"/>
</linearGradient>
<path class="st24" d="M246.5,348.9c0,0,1.6-4.3,0-4.5c-1.6-0.1-5.1,0.6-4.9,1.3c0.1,0.7,0.3,2.8,1.6,3.1
	C244.4,349.2,246.5,348.9,246.5,348.9z"/>
<path class="st9" d="M241,327c0.5,0,1-0.3,1.4-0.8c0.1-0.2,0.2-0.4,0.2-0.5l0,0c0,0,0-0.1,0-0.3c0,0,0,0,0-0.1
	c0.1-0.5,0.1-1.3-0.2-2c0-0.1-0.1-0.1-0.1-0.1c-0.5,0.1-1,0.2-1,0.2S242.4,325.8,241,327z"/>
<path class="st12" d="M237.8,327.5c0,0,2.5-1,3.5,0c1,1,2.8,4.3,1.2,4.3C240.8,331.8,237.8,327.5,237.8,327.5z"/>
<linearGradient id="SVGID_14_" gradientUnits="userSpaceOnUse" x1="237.75" y1="329.444" x2="243.145" y2="329.444">
	<stop  offset="0" style="stop-color:#F1F2F2"/>
	<stop  offset="0.1296" style="stop-color:#F1F2F2;stop-opacity:0.8704"/>
	<stop  offset="1" style="stop-color:#F1F2F2;stop-opacity:0"/>
</linearGradient>
<path class="st25" d="M237.8,327.5c0,0,2.5-1,3.5,0c1,1,2.8,4.3,1.2,4.3C240.8,331.8,237.8,327.5,237.8,327.5z"/>
<path class="st11" d="M238.1,320.8c0,0,5.7,1.5,4,3.9C240.5,327.1,236.5,323.8,238.1,320.8z"/>
<path class="st12" d="M238.1,320.6c0,0,5.7,1.5,4,3.9C240.5,326.9,236.5,323.6,238.1,320.6z"/>
<linearGradient id="SVGID_15_" gradientUnits="userSpaceOnUse" x1="237.7479" y1="322.9767" x2="242.478" y2="322.9767">
	<stop  offset="0" style="stop-color:#F1F2F2"/>
	<stop  offset="0.1296" style="stop-color:#F1F2F2;stop-opacity:0.8704"/>
	<stop  offset="1" style="stop-color:#F1F2F2;stop-opacity:0"/>
</linearGradient>
<path class="st26" d="M238.1,320.6c0,0,5.7,1.5,4,3.9C240.5,326.9,236.5,323.6,238.1,320.6z"/>
<g>
	<polygon class="st27" points="255.5,77.3 236.3,78.5 322.3,53.2 	"/>
	<polygon class="st28" points="259.5,91.8 322.3,53.2 262.2,79.8 	"/>
	<polygon class="st29" points="262.2,79.8 259.5,91.8 255.5,77.3 322.3,53.2 	"/>
	<polygon class="st30" points="262.2,79.8 278,95.6 322.3,53.2 	"/>
</g>
<g>
	<polygon class="st31" points="418.5,108.5 454.3,156.4 454.3,166 	"/>
	<polygon class="st32" points="418.5,108.5 454.3,156.4 463.2,156.4 	"/>
	<polygon class="st33" points="454.3,166 444,183.6 418.5,108.5 	"/>
	<polygon class="st34" points="418.5,108.5 463.2,156.4 481.9,150.7 	"/>
</g>
<path class="st35" d="M165.8,256.6c0,0-24.4-37.1,31.6-60.3c58.2-24.1,228.1-9.3,247.7,106.3c19.7,115.6-90,219.8-238.6,160.7"/>
<g>
	<polygon class="st36" points="153.8,428.1 205.2,456.3 203.5,476.1 	"/>
	<polygon class="st37" points="203.5,460.7 203.5,476.1 153.8,428.1 	"/>
	<polygon class="st38" points="153.8,428.1 203.5,460.7 198.9,484.6 	"/>
	<polygon class="st39" points="153.8,428.1 219.7,454.6 205.2,456.3 	"/>
</g>
<g>
	<g>
		<path class="st40" d="M383.7,154.7c0,0-2.4,18.3-13,33.6l-7.3-2.2l11.4-26.5l2.4-3.7L383.7,154.7z"/>
		<path class="st0" d="M349,178.4c0,0,13.3-11.8,16.9-28.7l12.3,6c0,0-5.4,18.9-14.7,30.4L349,178.4z"/>
		<polygon class="st41" points="365.8,149.7 371.2,148.2 383.7,154.7 378.1,155.7 		"/>
	</g>
	<g>
		<polygon class="st11" points="366.4,153.4 370.3,155.4 368.4,160.7 364.4,158.7 		"/>
		<polygon class="st11" points="371.7,156.1 375.6,158.1 373.6,163.4 369.7,161.4 		"/>
		<polygon class="st11" points="363.2,161.8 367.1,163.8 364.5,168.8 360.5,166.8 		"/>
		<polygon class="st11" points="368.6,164.2 372.5,166.2 369.7,171.5 365.8,169.5 		"/>
		<polygon class="st11" points="358.7,169.4 362.6,171.4 359.4,176.1 355.4,174.2 		"/>
		<polygon class="st11" points="363.9,172 367.8,174 364.6,178.8 360.7,176.8 		"/>
	</g>
	<g>
		<path class="st42" d="M404.6,146.9c0,0-3.5,38.5-17.2,54l-8.9-1.8l14.1-30.3l3.4-21.9H404.6z"/>
		<path class="st43" d="M363.3,188.7c0,0,15.2-11.4,24.1-44.3l11.6,5.2c0,0-3.1,28.8-20.4,49.4L363.3,188.7z"/>
		<polygon class="st44" points="387.4,144.5 394.9,142.3 404.6,146.9 399,149.7 		"/>
		<polygon class="st11" points="387,151.6 389.1,152.6 388.1,155.4 386,154.4 		"/>
		<polygon class="st11" points="390.8,153.3 392.8,154.3 391.8,157.1 389.7,156 		"/>
		<polygon class="st11" points="394.5,154.9 396.5,156 395.5,158.7 393.4,157.7 		"/>
		<polygon class="st11" points="385.6,155.9 387.7,157 386.6,159.7 384.6,158.7 		"/>
		<polygon class="st11" points="389.3,157.6 391.4,158.6 390.3,161.4 388.3,160.3 		"/>
		<polygon class="st11" points="393,159.2 395.1,160.3 394,163.1 392,162 		"/>
		<polygon class="st11" points="381.7,166.2 383.9,167.3 382.3,170.3 380.1,169.2 		"/>
		<polygon class="st11" points="385.6,167.9 387.9,169 386.3,172 384.1,170.9 		"/>
		<polygon class="st11" points="389.6,169.7 391.8,170.8 390.2,173.8 388,172.7 		"/>
		<polygon class="st11" points="379.5,170.5 381.7,171.6 380.1,174.6 377.9,173.5 		"/>
		<polygon class="st11" points="383.4,172.2 385.6,173.4 384,176.3 381.8,175.2 		"/>
		<polygon class="st11" points="387.4,174 389.6,175.1 388,178.1 385.8,177 		"/>
		<polygon class="st11" points="371.4,183.2 373.9,184.6 371.9,187.9 369.4,186.5 		"/>
		<polygon class="st11" points="375.5,185.7 378,187.2 375.9,190.5 373.5,189.1 		"/>
		<polygon class="st11" points="379.5,188.3 382,189.8 379.9,193.1 377.5,191.7 		"/>
	</g>
</g>
<g>
	<path class="st45" d="M161.5,240.1c0,0,18.3,2.7,33.3,13.7l-2.4,7.3l-26.2-11.9l-3.7-2.5L161.5,240.1z"/>
	<path class="st46" d="M184.4,275.4c0,0-11.5-13.6-28.4-17.5l6.3-12.2c0,0,18.8,5.8,30.1,15.4L184.4,275.4z"/>
	<polygon class="st47" points="156.1,257.9 154.7,252.5 161.5,240.1 162.3,245.7 	"/>
</g>
<g>
	<polygon class="st11" points="159.9,257.4 161.9,253.5 167.2,255.6 165.1,259.5 	"/>
	<polygon class="st11" points="162.7,252.2 164.7,248.3 170,250.4 167.9,254.3 	"/>
	<polygon class="st11" points="168.1,260.8 170.2,256.9 175.2,259.7 173.1,263.5 	"/>
	<polygon class="st11" points="170.6,255.5 172.7,251.6 178,254.5 175.9,258.4 	"/>
	<polygon class="st11" points="175.7,265.4 177.7,261.5 182.4,264.9 180.4,268.8 	"/>
	<polygon class="st11" points="178.4,260.3 180.4,256.4 185.2,259.7 183.1,263.6 	"/>
</g>
<path class="st48" d="M154.1,219c0,0,38.4,4.3,53.6,18.3l-2,8.8l-30-14.7l-21.8-3.8L154.1,219z"/>
<path class="st49" d="M195.1,261.2c0,0-11.1-15.4-43.7-25l5.4-11.4c0,0,28.8,3.7,49,21.5L195.1,261.2z"/>
<polygon class="st50" points="151.4,236.2 149.3,228.7 154.1,219 156.8,224.8 "/>
<polygon class="st11" points="158.5,236.7 159.5,234.7 162.3,235.8 161.2,237.8 "/>
<polygon class="st11" points="160.2,233 161.3,231 164,232.1 162.9,234.1 "/>
<polygon class="st11" points="161.9,229.4 163,227.3 165.8,228.4 164.7,230.5 "/>
<polygon class="st11" points="162.7,238.3 163.8,236.2 166.6,237.3 165.5,239.4 "/>
<polygon class="st11" points="164.5,234.6 165.6,232.5 168.3,233.6 167.2,235.7 "/>
<polygon class="st11" points="166.2,230.9 167.3,228.9 170.1,230 169,232 "/>
<polygon class="st11" points="172.9,242.4 174.1,240.2 177,241.9 175.9,244 "/>
<path class="st51" d="M429.9,278.9c0-0.2-0.1-0.4-0.1-0.6c-0.3-1.5-1.5-3.6-5.3-1.7c-5.6,2.8-5.9,7.4-4.5,13.4
	c1.4,6-5.9,2.7-10.1,13.2c-4.2,10.5-11.4,32.5-2.1,33.1c9.3,0.6,9.5-0.9,11.7,3.1c2.3,4-1.5,15.4,0.5,16c0.1,0,0.1,0,0.2,0
	c7.3-16.6,11.4-35,11.4-54.4c0-7.3-0.6-14.4-1.7-21.4l-0.1,0C429.9,279.6,429.9,279.3,429.9,278.9z"/>
<polygon class="st11" points="174.7,238.5 175.9,236.3 178.9,237.9 177.7,240.1 "/>
<polygon class="st11" points="176.6,234.5 177.8,232.4 180.7,234 179.6,236.2 "/>
<polygon class="st11" points="177.2,244.7 178.3,242.5 181.3,244.2 180.1,246.4 "/>
<polygon class="st11" points="179,240.8 180.2,238.6 183.1,240.3 182,242.4 "/>
<polygon class="st11" points="180.9,236.9 182,234.7 185,236.3 183.8,238.5 "/>
<polygon class="st11" points="189.7,253 191.2,250.6 194.4,252.7 193,255.1 "/>
<polygon class="st11" points="192.3,249 193.8,246.5 197.1,248.6 195.6,251.1 "/>
<polygon class="st11" points="195,245 196.5,242.6 199.8,244.7 198.3,247.1 "/>
<g>
	<path class="st52" d="M400,198c0,0-1.6,0.9-3.2,0c-1.6-0.9,0-4.2,0-4.2s-2.3,0.1-2.9-2c-0.6-2.1,1.4-3.3,3.6-3c0,0-1.3-2.2,1.1-4
		c2.4-1.8,3.6,0,3.6,0s0.7-2.7,4.7-2.8c4-0.1,4.1,3.9,4.1,3.9s3.2-0.1,5,2c1.8,2.1-0.4,4.6-0.4,4.6s1.3,0.9,1.1,3
		c-0.2,2.1-2.4,2.1-2.4,2.1s1.2,2.3-0.3,4.2c-1.5,1.9-4.8,0-4.8,0s-0.2,0.9-2.3,1.2c-2.1,0.4-2.2-2.9-2.2-2.9s-1.6,1.2-4,0.6
		C398.3,200.2,400,198,400,198z"/>
	<path class="st53" d="M406.9,203c2.1-0.4,2.3-1.2,2.3-1.2s3,1.7,4.5,0.3c-2.1,1.2-4.2-1.9-4.2-1.9s-0.4,1.8-2,2
		c-1.6,0.2-2.4-2.5-2.4-2.5s-0.8,0.3-1.7-0.3c-0.9-0.7,4.5-3.4,4.5-3.4s-3.1,0.5-3.6,0.2c-0.5-0.3,3.2-2.1,3.2-2.1s-2.1,0.7-2.8,0.1
		c-0.7-0.7,1.5-3,1.5-3s-1.8,1.8-2.7,2.5c-0.9,0.7-2-2.5-2-2.5s0,4.9-1.4,5c-1.4,0.1-1.5-3.6-1.5-3.6c-1.8,0.9-3.8-0.8-3.7-1.8
		c0-1,1.9-1.9,2-1.9c-1.9,0-3.4,1.2-2.9,3c0.6,2.1,2.9,2,2.9,2s-1.6,3.3,0,4.2c1.6,0.9,3.2,0,3.2,0s-1.8,2.1,0.7,2.7
		c2.4,0.6,4-0.6,4-0.6S404.9,203.4,406.9,203z"/>
	<path class="st54" d="M388.3,203c0,0,9.6-0.6,13.2-7.7v-4.2c0,0,0.8,1.3,0.7,3.5c0,0,2.6-1.8,3.3-2.8c0,0-1.7,2.5-2.9,3.5
		c0,0,1.8-0.6,3.4-0.7c0,0-2.6,0.6-3.1,1.7c0,0,3.2,0.6,5-0.3c0,0-2.9,1.6-4,1.5c-1.2-0.1-6.9,7.9-7.8,12.9c0,0-3.7,0.4-4.6-1.6
		c-0.8-2-2.5-0.7-2.5-2.1c0.1-1.4-1.3-2.4-2.7-2.7C384.9,203.6,386.9,203.2,388.3,203z"/>
	<path class="st55" d="M415.7,192.6c0,0,2.2-2.6,0.4-4.6c-1.8-2.1-5-2-5-2s-0.1-4-4.1-3.9c-4,0.1-4.7,2.8-4.7,2.8s2.1-3.3,5.4-1.2
		c2.2,1.4,2,4,2,4s3.8-1.1,4.8,1.1c1,2.3-0.6,4.3-0.6,4.3s3.4,1.6,2.2,4c0.4-0.3,0.7-0.8,0.8-1.5C417,193.5,415.7,192.6,415.7,192.6
		z"/>
	<path class="st53" d="M400.9,187.9c0,0,0.5-2.5,2.9-2.8c2.4-0.2,4,1.9,4,1.9s-4.4-2.7-6.9,1.1"/>
	<path class="st53" d="M412.1,192.2c0,0,1.2,0.4,1.2,1.9c0,1.5-2.1,1.8-2.1,1.8s0.6,0.7-0.3,1.5c-0.8,0.8-2.6-0.4-2.6-0.4
		s1.2,0.5,2.1,0c0.9-0.5,0.1-1.7,0.1-1.7s1,0.1,1.8-0.9C413.1,193.3,412.1,192.2,412.1,192.2z"/>
	<path class="st56" d="M406.7,196.4c-1,0.3-2.5,0.8-3.1,0.8c-0.9,0-1.3-1.3-1.3-1.3s0.2,0.6-0.2,1.3c-0.4,0.6-1.5,1.7-3.1,4.6
		c-1.6,3-3.3,7.2-4,7.4c-0.7,0.2-1.5-0.7-0.5-2c1-1.3,1.8-2.7,1.8-2.7s-2.8,3.8-3.4,3.9c-0.6,0.2-1.2-0.6-0.6-1.2
		c0.6-0.7,2.6-3.3,4.1-4.1c1.5-0.9,2.4-2.9,1.9-2.3c-0.6,0.6-0.7,1.3-1.8,1.8c-1.2,0.5-2,1.3-2.9,2.3c-0.9,1-2.6,1.8-3.1,1.6
		c-0.5-0.1-1.2-1-0.6-1.6c0.6-0.6,1.7-1.2,1.8-1.8c0-0.6,1.3-0.6,2.4-1.3c0.3-0.2,0.6-0.4,0.9-0.6c-3.4,1.5-6.6,1.8-6.6,1.8
		c-1.4,0.2-3.4,0.6-2,0.9c1.4,0.3,2.8,1.3,2.7,2.7c-0.1,1.4,1.6,0.1,2.5,2.1c0.8,2,4.6,1.6,4.6,1.6c0.9-5,6.6-13,7.8-12.9
		c1.2,0.1,4-1.5,4-1.5C407.5,196.2,407.1,196.3,406.7,196.4z"/>
</g>
<g>
	<path class="st52" d="M335.9,164c0,0-0.6,1.5-2.2,1.8c-1.6,0.2-2.3-2.9-2.3-2.9s-1.6,1.4-3.1,0.2c-1.5-1.1-0.9-3.1,0.8-4.1
		c0,0-2.1-0.8-1.5-3.4c0.6-2.6,2.5-2,2.5-2s-1.1-2.3,1.7-4.6c2.8-2.3,5,0.4,5,0.4s2.2-1.8,4.6-1.4c2.4,0.4,2.3,3.4,2.3,3.4
		s1.4-0.1,2.4,1.4c1,1.6-0.6,2.8-0.6,2.8s2.1,0.9,2.1,3.1c0,2.2-3.3,2.7-3.3,2.7s0.3,0.7-0.9,2.1c-1.2,1.4-3.1-0.8-3.1-0.8
		s-0.4,1.8-2.4,2.7C335.8,166.5,335.9,164,335.9,164z"/>
	<path class="st53" d="M343.5,163.7c1.2-1.4,0.9-2.1,0.9-2.1s3-0.5,3.3-2.3c-0.8,2-4,1-4,1s0.7,1.5-0.3,2.6c-1,1.1-3-0.4-3-0.4
		s-0.4,0.7-1.4,0.7c-1,0,1.2-4.8,1.2-4.8s-1.9,2.1-2.4,2.1c-0.5,0.1,1.1-3.3,1.1-3.3s-1,1.6-1.9,1.6c-0.9,0-0.6-2.9-0.6-2.9
		s-0.2,2.2-0.5,3.3c-0.2,1-2.8-0.7-2.8-0.7s2.7,3.5,1.8,4.3c-0.9,0.8-3.1-1.7-3.1-1.7c-0.8,1.6-3.1,1.5-3.6,0.8
		c-0.5-0.7,0.3-2.4,0.3-2.4c-1.3,1.1-1.7,2.7-0.3,3.7c1.5,1.1,3.1-0.2,3.1-0.2s0.7,3.2,2.3,2.9c1.6-0.2,2.2-1.8,2.2-1.8s0,2.5,2,1.5
		c2-0.9,2.4-2.7,2.4-2.7S342.2,165.1,343.5,163.7z"/>
	<path class="st54" d="M330.5,174c0,0,6.3-5.8,5-12.7l-2.4-2.9c0,0,1.2,0.5,2.4,2.1c0,0,0.8-2.7,0.7-3.8c0,0,0.2,2.7,0,4.1
		c0,0,1-1.4,1.9-2.4c0,0-1.5,1.9-1.3,2.9c0,0,2.6-1.4,3.3-3c0,0-1.1,2.7-2,3.3c-0.8,0.6-0.4,9.3,1.7,13.3c0,0-2.4,2.4-4.1,1.4
		c-1.7-1-2.2,0.9-2.9-0.1c-0.7-1-2.2-1-3.4-0.4C328.5,176.3,329.6,174.9,330.5,174z"/>
	<path class="st55" d="M343.7,151.6c0,0,0.1-3-2.3-3.4c-2.4-0.4-4.6,1.4-4.6,1.4s-2.3-2.7-5-0.4c-2.8,2.3-1.7,4.6-1.7,4.6
		s-0.3-3.5,3-3.8c2.3-0.3,3.6,1.7,3.6,1.7s2-2.9,4-1.9c2,1,2,3.4,2,3.4s3.2-0.8,3.7,1.6c0.1-0.4,0.1-0.9-0.3-1.5
		C345.2,151.4,343.7,151.6,343.7,151.6z"/>
	<path class="st53" d="M330.9,156.5c0,0-1.1-2,0.5-3.5c1.5-1.5,3.8-0.9,3.8-0.9s-4.6,0.6-4.2,4.6"/>
	<path class="st53" d="M341.1,153.3c0,0,1-0.4,1.9,0.7c0.9,1.1-0.5,2.4-0.5,2.4s0.8,0.2,0.7,1.2c-0.1,1-2,1.1-2,1.1s1.1-0.3,1.5-1.2
		c0.3-0.9-0.9-1.3-0.9-1.3s0.8-0.5,0.7-1.7C342.4,153.5,341.1,153.3,341.1,153.3z"/>
	<path class="st56" d="M339.6,159.2c-0.5,0.8-1.3,2-1.7,2.3c-0.6,0.5-1.6-0.2-1.6-0.2s0.5,0.3,0.6,1c0.1,0.7-0.1,2,0.4,4.9
		c0.5,2.9,1.7,6.8,1.3,7.4c-0.3,0.6-1.4,0.3-1.5-1.1c0-1.4-0.3-2.9-0.3-2.9s0.1,4.2-0.2,4.6c-0.3,0.4-1.1,0.3-1.1-0.5
		c0.1-0.8,0-3.7,0.5-5.1c0.6-1.4,0.1-3.3,0.1-2.6c-0.1,0.7,0.3,1.3-0.3,2.3c-0.5,1-0.7,2.1-0.7,3.2c0,1.2-0.8,2.7-1.2,2.8
		c-0.4,0.2-1.4,0-1.3-0.8c0-0.8,0.6-1.8,0.3-2.2c-0.3-0.4,0.6-1.1,1-2.2c0.1-0.3,0.2-0.6,0.2-0.9c-1.5,3-3.6,4.9-3.6,4.9
		c-0.9,0.9-2,2.3-0.9,1.7c1.2-0.6,2.6-0.6,3.4,0.4c0.7,1,1.2-0.9,2.9,0.1c1.7,1,4.1-1.4,4.1-1.4c-2.1-4-2.6-12.7-1.7-13.3
		c0.8-0.6,2-3.3,2-3.3C340,158.6,339.8,158.9,339.6,159.2z"/>
</g>
<g>
	<path class="st52" d="M436.6,288c0,0-1.8-0.4-2.4-2.1c-0.6-1.8,2.8-3.2,2.8-3.2s-1.8-1.5-0.9-3.4c0.9-1.9,3.3-1.6,4.7,0.1
		c0,0,0.4-2.5,3.4-2.3c3,0.2,2.7,2.4,2.7,2.4s2.3-1.6,5.4,1c3.1,2.6,0.5,5.7,0.5,5.7s2.5,2.1,2.5,4.8c0,2.7-3.4,3.2-3.4,3.2
		s0.4,1.6-1.1,3c-1.5,1.4-3.2-0.1-3.2-0.1s-0.6,2.5-3,2.9c-2.4,0.5-3.6-3.2-3.6-3.2s-0.8,0.5-2.5-0.6c-1.8-1.1,0.2-3.6,0.2-3.6
		s-2-0.1-3.4-2.2C433.8,288.4,436.6,288,436.6,288z"/>
	<path class="st53" d="M438.5,296.3c1.8,1.1,2.5,0.6,2.5,0.6s1.1,3.2,3.2,3.2c-2.4-0.5-1.9-4.2-1.9-4.2s-1.5,1.1-2.9,0.2
		c-1.4-0.9-0.2-3.5-0.2-3.5s-0.9-0.3-1.1-1.4c-0.2-1.1,5.6,0.4,5.6,0.4s-2.7-1.7-2.9-2.3c-0.2-0.6,3.8,0.6,3.8,0.6s-2-0.8-2.1-1.8
		c-0.1-1,3.1-1.2,3.1-1.2s-2.5,0.2-3.7,0.1c-1.2,0,0.2-3.2,0.2-3.2s-3.3,3.7-4.4,2.8c-1.1-0.8,1.3-3.7,1.3-3.7
		c-1.9-0.5-2.3-3.1-1.6-3.8c0.7-0.7,2.7-0.2,2.8-0.1c-1.4-1.2-3.4-1.3-4.2,0.4c-0.9,1.9,0.9,3.4,0.9,3.4s-3.4,1.4-2.8,3.2
		c0.6,1.8,2.4,2.1,2.4,2.1s-2.7,0.4-1.3,2.5c1.4,2.1,3.4,2.2,3.4,2.2S436.7,295.2,438.5,296.3z"/>
	<path class="st54" d="M424.4,283.9c0,0,7.6,5.9,15,3l2.8-3.2c0,0-0.3,1.5-1.8,3.1c0,0,3.2,0.4,4.3,0.1c0,0-2.9,0.7-4.5,0.8
		c0,0,1.7,0.8,3,1.7c0,0-2.4-1.3-3.5-0.8c0,0,2,2.6,4,3.1c0,0-3.2-0.7-4-1.5c-0.8-0.8-10.4,1.4-14.4,4.5c0,0-3.1-2.1-2.4-4.2
		c0.7-2.1-1.4-2.2-0.5-3.2c1-1,0.7-2.7-0.2-3.8C421.5,282.2,423.3,283.2,424.4,283.9z"/>
	<path class="st55" d="M451.9,294.2c0,0,3.4-0.5,3.4-3.2c0-2.7-2.5-4.8-2.5-4.8s2.6-3.1-0.5-5.7c-3.1-2.6-5.4-1-5.4-1
		s3.8-1.1,4.8,2.6c0.7,2.5-1.1,4.3-1.1,4.3s3.6,1.7,2.9,4.1c-0.8,2.4-3.3,2.9-3.3,2.9s1.5,3.4-1,4.4c0.5,0,1.1-0.1,1.6-0.6
		C452.3,295.8,451.9,294.2,451.9,294.2z"/>
	<path class="st53" d="M443.9,280.9c0,0,2-1.6,4-0.2c1.9,1.4,1.8,4.1,1.8,4.1s-1.5-4.9-5.9-3.7"/>
	<path class="st53" d="M449.5,291.6c0,0,0.6,1.1-0.4,2.2c-1,1.2-2.8-0.1-2.8-0.1s-0.1,0.9-1.2,1c-1.2,0.1-1.7-2-1.7-2
		s0.6,1.2,1.6,1.4c1,0.2,1.2-1.2,1.2-1.2s0.7,0.7,2,0.5C449.5,293.1,449.5,291.6,449.5,291.6z"/>
	<path class="st56" d="M442.7,291.1c-1-0.4-2.4-1.1-2.9-1.4c-0.7-0.6-0.1-1.8-0.1-1.8s-0.2,0.6-1,0.8c-0.7,0.2-2.2,0.3-5.4,1.5
		c-3.2,1.2-7.2,3.2-7.9,2.9c-0.7-0.3-0.6-1.5,1-1.8c1.6-0.3,3.1-0.9,3.1-0.9s-4.6,1-5.2,0.7c-0.6-0.3-0.5-1.2,0.4-1.3
		c0.9-0.1,4.1-0.8,5.8-0.4c1.7,0.4,3.7-0.5,2.9-0.5c-0.8,0.1-1.4,0.5-2.6,0.2c-1.2-0.4-2.4-0.3-3.7-0.1c-1.3,0.2-3.1-0.4-3.4-0.8
		c-0.3-0.4-0.3-1.5,0.6-1.6c0.9-0.1,2.1,0.3,2.5-0.2c0.4-0.4,1.4,0.5,2.7,0.6c0.4,0,0.7,0.1,1.1,0.1c-3.6-1.1-6.1-3-6.1-3
		c-1.1-0.8-3-1.8-2.1-0.6c0.9,1.2,1.2,2.8,0.2,3.8c-1,1,1.2,1.1,0.5,3.2c-0.7,2.1,2.4,4.2,2.4,4.2c4-3.1,13.6-5.4,14.4-4.5
		c0.8,0.8,4,1.5,4,1.5C443.4,291.5,443,291.3,442.7,291.1z"/>
</g>
<g>
	<path class="st52" d="M177.1,290.1c0,0,1.8-0.4,2.4-2.1c0.6-1.8-2.8-3.2-2.8-3.2s1.8-1.5,0.9-3.4c-0.9-1.9-3.3-1.6-4.7,0.1
		c0,0-0.4-2.5-3.4-2.3c-3,0.2-2.7,2.4-2.7,2.4s-2.3-1.6-5.4,1c-3.1,2.6-0.5,5.7-0.5,5.7s-2.5,2.1-2.5,4.8c0,2.7,3.4,3.2,3.4,3.2
		s-0.4,1.6,1.1,3c1.5,1.4,3.2-0.1,3.2-0.1s0.6,2.5,3,2.9c2.4,0.5,3.6-3.2,3.6-3.2s0.8,0.5,2.5-0.6c1.8-1.1-0.2-3.6-0.2-3.6
		s2-0.1,3.4-2.2C179.8,290.6,177.1,290.1,177.1,290.1z"/>
	<path class="st53" d="M175.2,298.4c-1.8,1.1-2.5,0.6-2.5,0.6s-1.1,3.2-3.2,3.2c2.4-0.5,1.9-4.2,1.9-4.2s1.5,1.1,2.9,0.2
		c1.4-0.9,0.2-3.5,0.2-3.5s0.9-0.3,1.1-1.4c0.2-1.1-5.6,0.4-5.6,0.4s2.7-1.7,2.9-2.3c0.2-0.6-3.8,0.6-3.8,0.6s2-0.8,2.1-1.8
		c0.1-1-3.1-1.2-3.1-1.2s2.5,0.2,3.7,0.1c1.2,0-0.2-3.2-0.2-3.2s3.3,3.7,4.4,2.8c1.1-0.8-1.3-3.7-1.3-3.7c1.9-0.5,2.3-3.1,1.6-3.8
		c-0.7-0.7-2.7-0.2-2.8-0.1c1.4-1.2,3.4-1.3,4.2,0.4c0.9,1.9-0.9,3.4-0.9,3.4s3.4,1.4,2.8,3.2c-0.6,1.8-2.4,2.1-2.4,2.1
		s2.7,0.4,1.3,2.5c-1.4,2.1-3.4,2.2-3.4,2.2S177,297.3,175.2,298.4z"/>
	<path class="st54" d="M189.2,286.1c0,0-7.6,5.9-15,3l-2.8-3.2c0,0,0.3,1.5,1.8,3.1c0,0-3.2,0.4-4.3,0.1c0,0,2.9,0.7,4.5,0.8
		c0,0-1.7,0.8-3,1.7c0,0,2.4-1.3,3.5-0.8c0,0-2,2.6-4,3.1c0,0,3.2-0.7,4-1.5c0.8-0.8,10.4,1.4,14.4,4.5c0,0,3.1-2.1,2.4-4.2
		c-0.7-2.1,1.4-2.2,0.5-3.2c-1-1-0.7-2.7,0.2-3.8C192.2,284.3,190.4,285.3,189.2,286.1z"/>
	<path class="st55" d="M161.7,296.4c0,0-3.4-0.5-3.4-3.2c0-2.7,2.5-4.8,2.5-4.8s-2.6-3.1,0.5-5.7c3.1-2.6,5.4-1,5.4-1
		s-3.8-1.1-4.8,2.6c-0.7,2.5,1.1,4.3,1.1,4.3s-3.6,1.7-2.9,4.1c0.8,2.4,3.3,2.9,3.3,2.9s-1.5,3.4,1,4.4c-0.5,0-1.1-0.1-1.6-0.6
		C161.3,297.9,161.7,296.4,161.7,296.4z"/>
	<path class="st53" d="M169.8,283.1c0,0-2-1.6-4-0.2c-1.9,1.4-1.8,4.1-1.8,4.1s1.5-4.9,5.9-3.7"/>
	<path class="st53" d="M164.2,293.8c0,0-0.6,1.1,0.4,2.2c1,1.2,2.8-0.1,2.8-0.1s0.1,0.9,1.2,1c1.2,0.1,1.7-2,1.7-2s-0.6,1.2-1.6,1.4
		c-1,0.2-1.2-1.2-1.2-1.2s-0.7,0.7-2,0.5C164.1,295.3,164.2,293.8,164.2,293.8z"/>
	<path class="st56" d="M171,293.3c1-0.4,2.4-1.1,2.9-1.4c0.7-0.6,0.1-1.8,0.1-1.8s0.2,0.6,1,0.8c0.7,0.2,2.2,0.3,5.4,1.5
		c3.2,1.2,7.2,3.2,7.9,2.9c0.7-0.3,0.6-1.5-1-1.8c-1.6-0.3-3.1-0.9-3.1-0.9s4.6,1,5.2,0.7c0.6-0.3,0.5-1.2-0.4-1.3
		c-0.9-0.1-4.1-0.8-5.8-0.4c-1.7,0.4-3.7-0.5-2.9-0.5c0.8,0.1,1.4,0.5,2.6,0.2c1.2-0.4,2.4-0.3,3.7-0.1c1.3,0.2,3.1-0.4,3.4-0.8
		c0.3-0.4,0.3-1.5-0.6-1.6c-0.9-0.1-2.1,0.3-2.5-0.2c-0.4-0.4-1.4,0.5-2.7,0.6c-0.4,0-0.7,0.1-1.1,0.1c3.6-1.1,6.1-3.1,6.1-3.1
		c1.1-0.8,3-1.8,2.1-0.6c-0.9,1.2-1.2,2.8-0.2,3.8c1,1-1.2,1.1-0.5,3.2c0.7,2.1-2.4,4.2-2.4,4.2c-4-3.1-13.6-5.4-14.4-4.5
		c-0.8,0.8-4,1.5-4,1.5C170.2,293.6,170.6,293.5,171,293.3z"/>
</g>
<path class="st48" d="M193,221.4c0,0,15.6,2.1,19.7,7.5v9.3l-19.1-7.2L193,221.4z"/>
<g>
	<path class="st52" d="M201.3,213.9c0,0,1.5,0.8,2.9-0.1c1.4-0.9-0.2-3.8-0.2-3.8s2.1,0,2.5-1.9c0.4-1.9-1.4-2.9-3.3-2.5
		c0,0,1.1-2-1.1-3.5c-2.2-1.5-3.2,0.1-3.2,0.1s-0.7-2.4-4.3-2.3c-3.6,0.1-3.5,3.7-3.5,3.7s-2.9,0.1-4.4,2c-1.5,1.9,0.6,4.1,0.6,4.1
		s-1.2,0.9-0.9,2.7c0.3,1.8,2.3,1.7,2.3,1.7s-0.9,2.1,0.5,3.7c1.4,1.6,4.3-0.2,4.3-0.2s0.3,0.7,2.1,1c1.8,0.2,1.9-2.6,1.9-2.6
		s1.5,1,3.6,0.4C202.9,215.7,201.3,213.9,201.3,213.9z"/>
	<path class="st53" d="M195.3,218.6c-1.8-0.2-2.1-1-2.1-1s-2.6,1.6-4,0.4c1.9,1,3.7-1.9,3.7-1.9s0.4,1.6,1.9,1.7
		c1.5,0.1,2-2.3,2-2.3s0.8,0.3,1.5-0.4c0.8-0.7-4.1-2.8-4.1-2.8s2.8,0.3,3.2,0c0.4-0.3-3-1.7-3-1.7s1.9,0.5,2.5-0.1
		c0.6-0.6-1.5-2.6-1.5-2.6s1.7,1.5,2.5,2.1c0.8,0.6,1.7-2.3,1.7-2.3s0.2,4.4,1.5,4.4c1.2,0,1.2-3.3,1.2-3.3c1.6,0.7,3.3-0.9,3.2-1.8
		c-0.1-0.9-1.8-1.6-1.9-1.6c1.7-0.1,3.1,0.9,2.7,2.6c-0.4,1.9-2.5,1.9-2.5,1.9s1.6,2.9,0.2,3.8c-1.4,0.9-2.9,0.1-2.9,0.1
		s1.7,1.8-0.5,2.5c-2.1,0.6-3.6-0.4-3.6-0.4S197.2,218.8,195.3,218.6z"/>
	<path class="st54" d="M211.9,217.8c0,0-8.6-0.2-12.1-6.2l-0.2-3.8c0,0-0.6,1.2-0.5,3.1c0,0-2.4-1.5-3-2.4c0,0,1.6,2.1,2.7,3
		c0,0-1.6-0.4-3-0.5c0,0,2.4,0.4,2.9,1.3c0,0-2.9,0.7-4.5-0.1c0,0,2.6,1.3,3.6,1.2c1-0.1,6.4,6.7,7.5,11.1c0,0,3.3,0.2,4-1.6
		c0.7-1.8,2.2-0.7,2.1-2c-0.1-1.2,1-2.2,2.3-2.5C215,218.2,213.2,217.9,211.9,217.8z"/>
	<path class="st55" d="M187.1,209.7c0,0-2.1-2.2-0.6-4.1c1.5-1.9,4.4-2,4.4-2s-0.1-3.6,3.5-3.7c3.6-0.1,4.3,2.3,4.3,2.3
		s-2-2.8-4.8-0.9c-1.9,1.3-1.6,3.6-1.6,3.6s-3.5-0.9-4.3,1.2c-0.8,2.1,0.7,3.8,0.7,3.8s-2.9,1.5-1.8,3.6c-0.4-0.3-0.7-0.7-0.8-1.3
		C186,210.5,187.1,209.7,187.1,209.7z"/>
	<path class="st53" d="M200.1,204.9c0,0-0.5-2.2-2.7-2.3c-2.1-0.1-3.5,1.8-3.5,1.8s3.8-2.6,6.2,0.7"/>
	<path class="st53" d="M190.3,209.2c0,0-1,0.4-0.9,1.8c0.1,1.4,2,1.5,2,1.5s-0.5,0.7,0.3,1.4c0.8,0.7,2.3-0.5,2.3-0.5
		s-1.1,0.5-1.9,0.1c-0.8-0.4-0.2-1.5-0.2-1.5s-0.9,0.1-1.7-0.8C189.4,210.2,190.3,209.2,190.3,209.2z"/>
	<path class="st56" d="M195.3,212.6c0.9,0.3,2.3,0.6,2.8,0.6c0.8,0,1.1-1.2,1.1-1.2s-0.2,0.6,0.2,1.1c0.4,0.5,1.4,1.4,2.9,4
		c1.5,2.6,3.3,6.2,3.9,6.4c0.6,0.2,1.3-0.7,0.4-1.8c-0.9-1.1-1.7-2.3-1.7-2.3s2.6,3.2,3.2,3.4c0.5,0.1,1.1-0.5,0.5-1.1
		c-0.6-0.6-2.4-2.8-3.8-3.5c-1.4-0.7-2.3-2.4-1.8-1.9c0.5,0.5,0.6,1.1,1.7,1.5c1,0.4,1.9,1.1,2.7,2c0.8,0.9,2.4,1.5,2.8,1.3
		c0.4-0.1,1-0.9,0.5-1.5c-0.5-0.5-1.6-1-1.6-1.5c-0.1-0.5-1.2-0.4-2.2-1c-0.3-0.2-0.6-0.4-0.8-0.5c3.1,1.2,6,1.3,6,1.3
		c1.2,0.1,3,0.4,1.8,0.7c-1.3,0.3-2.4,1.3-2.3,2.5c0.1,1.2-1.5,0.1-2.1,2c-0.7,1.8-4,1.6-4,1.6c-1-4.4-6.4-11.3-7.5-11.1
		c-1,0.1-3.6-1.2-3.6-1.2C194.6,212.5,194.9,212.6,195.3,212.6z"/>
</g>
<path class="st50" d="M195.4,229.3l-4.9,10.8c0,0,8.4,2.2,14.9,8.9l7.3-10.8C212.7,238.2,201.2,230.2,195.4,229.3z"/>
<polygon class="st49" points="190.5,240.1 189.3,227.5 193,221.4 195.4,229.3 "/>
<polygon class="st11" points="201.4,244.5 202.7,242.6 205.3,244 204,245.9 "/>
<polygon class="st11" points="203.6,241 204.9,239.1 207.5,240.6 206.2,242.4 "/>
<polygon class="st11" points="205.8,237.6 207.1,235.7 209.7,237.1 208.4,239 "/>
<path class="st57" d="M160.7,299.5c0,0-79.4,70.7,69,85c179,17.2,309.8-146.7,231.9-221.8"/>
<g>
	<g>
		<path class="st58" d="M444.8,319.7c0,0-15.2,1.5-29.4-4.3l0.4-6.3l23.4,4.3l3.5,1.2L444.8,319.7z"/>
		<path class="st59" d="M419.3,296c0,0,12,8.6,26.3,8.3l-2.6,11c0,0-16.2-0.9-27.2-6.3L419.3,296z"/>
		<polygon class="st60" points="445.5,304.3 447.7,308.4 444.8,319.7 443,315.4 		"/>
	</g>
	<g>
		<polygon class="st11" points="442.6,305.5 441.7,309 437.1,308.4 438,304.9 		"/>
		<polygon class="st11" points="441.4,310.2 440.5,313.8 435.9,313.1 436.8,309.6 		"/>
		<polygon class="st11" points="435.3,304.5 434.4,308 429.8,306.8 430.7,303.3 		"/>
		<polygon class="st11" points="434.4,309.2 433.5,312.8 428.7,311.5 429.5,308 		"/>
		<polygon class="st11" points="428.3,302.3 427.4,305.8 423,304 423.9,300.5 		"/>
		<polygon class="st11" points="427.2,306.9 426.3,310.5 421.8,308.7 422.7,305.2 		"/>
	</g>
	<g>
		<path class="st61" d="M454.9,335.1c0,0-31.7,4.3-46.7-3.9l-0.2-7.5l27,5.8l18.3-1.3L454.9,335.1z"/>
		<path class="st62" d="M413.6,309.5c0,0,12,10.1,40.1,11.3l-2,10.3c0,0-23.8,2.8-43.6-7.3L413.6,309.5z"/>
		<polygon class="st63" points="453.7,320.8 456.8,326.4 454.9,335.1 451.7,331.1 		"/>
		<polygon class="st11" points="447.9,321.8 447.4,323.7 445,323.3 445.5,321.5 		"/>
		<polygon class="st11" points="447.3,325.1 446.8,327 444.4,326.6 444.8,324.8 		"/>
		<polygon class="st11" points="446.6,328.4 446.1,330.3 443.7,329.9 444.2,328.1 		"/>
		<polygon class="st11" points="444.2,321.4 443.7,323.3 441.3,323 441.7,321.1 		"/>
		<polygon class="st11" points="443.5,324.7 443,326.6 440.6,326.3 441.1,324.4 		"/>
		<polygon class="st11" points="442.9,328 442.4,329.9 440,329.5 440.4,327.7 		"/>
		<polygon class="st11" points="435.2,320.2 434.7,322.2 432,321.4 432.5,319.4 		"/>
		<polygon class="st11" points="434.5,323.7 434,325.7 431.3,324.9 431.8,323 		"/>
		<polygon class="st11" points="433.8,327.2 433.3,329.2 430.6,328.5 431.1,326.5 		"/>
		<polygon class="st11" points="431.3,319.2 430.8,321.2 428.1,320.4 428.6,318.5 		"/>
		<polygon class="st11" points="430.6,322.7 430.1,324.7 427.4,323.9 427.9,322 		"/>
		<polygon class="st11" points="429.9,326.2 429.4,328.2 426.7,327.5 427.2,325.5 		"/>
		<polygon class="st11" points="419.6,315 418.9,317.3 415.8,316.3 416.5,314 		"/>
		<polygon class="st11" points="418.3,318.8 417.6,321.1 414.5,320 415.2,317.8 		"/>
		<polygon class="st11" points="416.9,322.5 416.2,324.8 413.1,323.7 413.8,321.5 		"/>
	</g>
</g>
</svg>
